M48
;Layer_Color=9474304
;FILE_FORMAT=2:5
INCH
;TYPE=PLATED
T01F00S00C0.00787
T02F00S00C0.00800
T03F00S00C0.00984
T04F00S00C0.01181
T05F00S00C0.01968
T07F00S00C0.10630
%
T01
X0029528Y0031496
X0032677
X0033105Y0041525
X0031453Y0041459
X0029799
X0028278Y0042107
X0026862Y0041253
X0025296Y0040721
X0023643
X0020481Y0041400
X0020249Y0043037
Y0044691
X0020304Y0046343
X0023191Y0047468
X0026325Y0047361
X0027192Y0045953
X0028744Y0046524
X0030385Y0046730
X0032038
X0033657Y0046393
X0035217Y0045845
X0036871
X0038524
X0037848Y0042344
X0036195
X0034541
X0039319Y0041588
X0043898Y0039764
Y0048425
X0039370Y0059055
Y0062008
X0042224Y0071240
X0042126Y0074803
X0041339Y0085630
Y0088976
X0038386Y0087598
X0047362Y0086240
Y0081240
X0058661Y0080709
Y0076772
X0062598
Y0080709
X0066535
Y0076772
Y0072835
X0062598
X0058661
Y0084646
X0062598
X0066535
X0087323Y0088976
X0090945Y0094882
X0093307Y0094095
X0094488Y0096850
X0094193Y0101476
X0096752
X0101575Y0103386
Y0106850
X0105512
X0109449Y0103386
X0114567Y0102362
X0120079Y0106693
X0125197Y0106850
X0129921
X0129921Y0103386
X0130709Y0097402
Y0093937
X0134646Y0093937
X0134882Y0089764
X0138347
X0140059Y0085827
Y0081890
X0140059Y0077953
X0145232Y0075241
X0147988Y0077997
X0150437Y0075547
X0151260Y0087795
X0151417Y0092126
X0152756Y0104724
X0134646Y0106850
X0135531Y0085827
X0131496Y0083465
X0127564Y0085433
X0127564Y0089370
X0123031Y0093902
X0122047Y0084449
X0118110
X0114173
Y0080512
X0118110
X0122047
Y0076575
X0118110
X0114173
X0110236
X0106299
Y0080512
X0110236
Y0084449
X0106299
X0100783Y0085433
Y0081496
Y0079528
Y0073622
X0095039Y0075590
X0091575
X0095039Y0071653
X0087402Y0071890
X0083465Y0071890
X0081102Y0062894
X0091575Y0062205
Y0066142
X0103347Y0067121
X0111221
X0115157
X0117126Y0067121
X0119095Y0067121
X0121063
X0125000
X0124016Y0062598
X0122047
X0120079
X0117471Y0061614
X0111417Y0056791
X0107087Y0056791
X0103150
X0114803Y0050000
X0114173Y0045472
X0116437Y0041732
X0111909
X0114173Y0037992
X0104724Y0039469
X0093465Y0039764
X0090000
Y0035433
X0093465
Y0031102
X0090000
Y0026772
X0093465
Y0022441
Y0018110
X0094331Y0011417
X0101339Y0015354
X0103937Y0020177
X0111909Y0022835
X0116437
X0114173Y0019094
X0114803Y0014567
X0122677Y0015354
X0114173Y0026575
X0134016Y0034252
X0138425
X0149764Y0034252
X0156004Y0041732
X0149764Y0049213
X0138425Y0049213
X0134016
X0131102Y0054173
X0137205Y0055905
X0143110
Y0061417
X0131102Y0065512
X0129921Y0068898
X0127564Y0071653
X0126624Y0057677
X0131102Y0039075
X0141339Y0044390
X0093996Y0044094
X0093465Y0048031
X0090000
X0081496Y0026772
X0084252Y0103386
Y0106850
X0089075Y0107185
X0094193
X0089075Y0101476
X0101811Y0099213
X0103347Y0093902
X0105315
X0107283Y0093902
X0109252
X0111221
X0023228Y0078740
X0157480Y0079331
X0157480Y0077362
X0157480Y0081299
Y0071457
X0160039Y0066929
X0162008
X0163976
X0163465Y0060787
X0163386Y0057323
X0167323
Y0060787
X0171260Y0057284
X0175197Y0057323
Y0060787
X0180730Y0059535
Y0056779
X0180386Y0054044
X0181184Y0051406
X0183938Y0051513
X0184231Y0056929
Y0059685
X0187755Y0057856
X0190076Y0056371
X0194076Y0056371
X0196832
X0199660
X0202395Y0056705
X0201575Y0053701
X0204343Y0054756
X0204811Y0052040
X0207541Y0051666
X0210901Y0051666
X0213638Y0053510
X0216370Y0053142
X0219126
X0221881
X0224637
X0227393
X0230149
X0232905
X0234252Y0064961
X0231370Y0064968
X0228614
X0225858
X0223103
X0220347
X0217591
X0214835
X0213162Y0062778
X0210609Y0061740
X0208094Y0061657
X0203543Y0062756
X0201129Y0061672
X0201484Y0066586
X0200561Y0069183
X0197627Y0069077
X0197173Y0071671
X0197232Y0074427
X0196680Y0077127
X0194646Y0081102
X0192900Y0083660
X0188595Y0080821
X0188808Y0078073
X0186054Y0078177
X0184478Y0071439
X0181880Y0072361
X0181734Y0067985
X0177935Y0066834
X0175301Y0067645
X0179884Y0064885
X0180811Y0062289
X0187008Y0063976
X0188091Y0069291
X0188539Y0090507
X0190989Y0092957
X0193745Y0090201
X0183661Y0092362
Y0095827
X0179724Y0095827
X0175787
Y0092362
X0171850Y0092362
Y0095827
X0167913
X0167913Y0100236
X0161417Y0098425
X0162756Y0092126
X0168898Y0047933
X0179370Y0045669
X0179370Y0041732
X0179134Y0032579
X0175197Y0032579
X0171260Y0032480
X0166535Y0032579
X0171968Y0037795
X0158268Y0037992
X0160531Y0041732
X0158268Y0045472
X0156988Y0029528
X0160630Y0021850
X0158366Y0018110
X0162894Y0018110
X0160630Y0014370
X0171358Y0010236
X0172835Y0017520
Y0020276
X0175984
Y0017520
X0183071Y0022343
X0183071Y0028051
Y0032579
X0187795Y0034547
X0191732Y0034409
X0199016Y0031496
X0190650Y0024803
X0190650Y0020079
X0191496Y0010236
X0188031
X0183622
X0195669Y0010472
X0199606
X0197638Y0053701
X0213162Y0056225
T02
X0166929Y0070571
Y0076378
Y0082185
X0172736Y0076378
X0161122
T03
X0031496Y0011811
X0035433
Y0015748
X0031496
X0051181
X0055118
X0059055
X0062992
X0066929
Y0019685
X0070866
X0074803
Y0023622
Y0027559
Y0031496
Y0035433
Y0039370
Y0043307
Y0047244
Y0051181
X0078740
X0082677
X0086614
X0090551
X0074803Y0055118
Y0059055
X0070866
Y0055118
Y0051181
Y0047244
Y0043307
Y0039370
Y0035433
Y0031496
Y0027559
Y0023622
X0066929
Y0027559
Y0031496
Y0035433
Y0039370
Y0043307
Y0047244
Y0051181
Y0055118
Y0059055
X0062992
Y0055118
Y0051181
Y0047244
Y0043307
Y0039370
Y0035433
Y0031496
Y0027559
Y0023622
Y0019685
X0059055
Y0023622
Y0027559
Y0031496
Y0035433
Y0039370
Y0043307
Y0047244
Y0051181
Y0055118
Y0059055
X0055118
Y0055118
Y0051181
Y0047244
Y0043307
Y0039370
Y0035433
Y0031496
Y0027559
Y0023622
Y0019685
X0051181
Y0023622
Y0027559
Y0031496
Y0035433
Y0039370
Y0043307
Y0047244
Y0051181
Y0055118
Y0059055
X0047244
Y0062992
Y0055118
Y0051181
X0043307
Y0055118
Y0059055
X0039370Y0055118
Y0051181
X0035433
Y0055118
X0031496
Y0051181
X0027559
X0023622
X0015748Y0055118
X0011811
Y0051181
Y0047244
Y0043307
X0015748
X0011811Y0039370
Y0035433
X0015748Y0035433
X0019685
X0023622Y0035433
X0027559
Y0039370
X0035433
Y0035433
Y0031496
X0051181Y0011811
X0055118
X0059055
X0062992
X0066929
X0070866
X0086614
X0090551
X0086614Y0015748
Y0027559
Y0031496
X0114173Y0011811
X0118110
X0122047
X0133858Y0059055
Y0062992
X0078740Y0078740
X0074803
Y0074803
X0070866
Y0078740
Y0082677
X0047244Y0090551
X0043307
Y0102362
X0039370
X0035433
Y0098425
X0039370Y0078740
Y0074803
Y0070866
Y0066929
X0023622Y0070866
X0015748Y0062992
X0011811
Y0086614
X0015748
X0165354Y0090551
Y0094488
X0173228Y0098425
X0177165
X0181103
X0185039
X0188977
X0192913
X0196851
X0200787
X0204725
Y0094488
Y0090551
X0200787
Y0094488
X0196851
Y0090551
Y0086614
X0212598
Y0082677
Y0078740
Y0074803
Y0070866
Y0066929
X0216536
X0220473
X0224410
Y0051181
X0220473
X0216536
X0212598Y0047244
Y0043307
Y0039370
Y0035433
X0216536
X0220473
X0224410
Y0031496
X0208662Y0035433
Y0039370
Y0047244
X0204725
Y0035433
Y0023622
X0200787
X0192913Y0027559
Y0039370
X0196851Y0043307
X0204725Y0066929
X0208662
Y0070866
X0177165Y0062992
X0173228Y0051181
X0169291
X0165354Y0035433
X0169291Y0023622
X0161417Y0062992
X0157480Y0106299
T04
X0008116Y0007832
X0012723Y0004874
X0018119Y0003943
X0023622Y0003937
X0029528
X0035433
X0041339
X0047244
X0053150
X0059055
X0064961
X0070866
X0076772
X0082677
X0088583
X0094488
X0100394
X0106299
X0112205
X0118110
X0124016
X0129921
X0135827
X0141732
X0147638
X0153543
Y0114173
X0147638
X0141732
X0135827
X0129921
X0124016
X0118110
X0112205
X0106693
X0100394
X0094488
X0088583
X0082677
X0076772
X0070866
X0064961
X0059055
X0053150
X0047244
X0041339
X0035433
X0029528
X0023622
X0017717Y0114173
Y0108120
X0012253Y0105857
X0012351Y0113085
X0007832Y0109994
X0004874Y0105387
X0003943Y0099992
X0003937Y0094488
Y0088583
Y0082677
Y0076772
Y0070866
Y0064961
Y0059055
Y0053150
Y0047244
Y0041339
Y0035433
Y0029528
Y0023622
Y0017717
X0009990
X0012253Y0023180
X0017717Y0025443
X0023180Y0023180
X0025443Y0017717
X0023180Y0012253
X0017717Y0009990
X0012253Y0012253
X0005025Y0012351
X0012253Y0094930
X0017717Y0092667
X0023180Y0094930
X0025443Y0100394
X0023180Y0105857
X0009990Y0100394
X0159449Y0114173
X0165354
X0171260
X0177165
X0183071
X0188976
X0194882
X0200787
X0206693
X0212598
X0218102Y0114167
X0223497Y0113237
X0228104Y0110278
X0231196Y0105760
X0232283Y0100394
X0232283Y0094488
Y0088583
Y0076772
X0223967Y0094930
X0226230Y0100394
X0223967Y0105857
X0218504Y0108120
X0213041Y0105857
X0210778Y0100394
X0213041Y0094930
X0218504Y0092667
X0232283Y0041339
Y0029528
Y0023622
X0232278Y0018119
X0231347Y0012723
X0228389Y0008116
X0223870Y0005025
X0218504Y0003937
X0212598
X0206693
X0200787
X0194882
X0188976
X0183071
X0177165
X0171260
X0165354
X0159449
X0213041Y0012253
X0210778Y0017717
X0213041Y0023180
X0218504Y0025443
X0223967Y0023180
X0226230Y0017717
X0223967Y0012253
X0218504Y0009990
T05
X0111024Y0011024
X0127165Y0010236
X0132677
X0135039Y0027165
X0136221Y0037795
Y0045669
X0153937Y0033858
X0102362Y0051181
X0070472Y0103937
X0157480Y0033858
X0187402Y0043701
X0205906Y0015354
X0203937Y0012205
T07
X0017717Y0017717
Y0100394
X0218504Y0100394
Y0017717
M30
