G04*
G04 #@! TF.GenerationSoftware,Altium Limited,Altium Designer,25.0.2 (28)*
G04*
G04 Layer_Physical_Order=2*
G04 Layer_Color=32768*
%FSLAX25Y25*%
%MOIN*%
G70*
G04*
G04 #@! TF.SameCoordinates,B82FF533-CE5D-4E75-9CB9-CDC5554C5AB3*
G04*
G04*
G04 #@! TF.FilePolarity,Negative*
G04*
G01*
G75*
%ADD150C,0.04000*%
%ADD151C,0.02362*%
%ADD152C,0.03543*%
D150*
X218504D02*
G03*
X236221Y17717I0J17717D01*
G01*
Y100394D02*
G03*
X218504Y118110I-17717J0D01*
G01*
X17717Y118110D02*
G03*
X0Y100394I0J-17717D01*
G01*
Y17717D02*
G03*
X17717Y0I17717J0D01*
G01*
X218504D01*
X236221Y17717D02*
Y100394D01*
X17717Y118110D02*
X218504Y118110D01*
X0Y17717D02*
Y100394D01*
D151*
X91575Y62205D02*
D03*
Y66142D02*
D03*
X104724Y39469D02*
D03*
X114803Y50000D02*
D03*
X114173Y37992D02*
D03*
Y45472D02*
D03*
X116437Y41732D02*
D03*
X111909D02*
D03*
X188031Y10236D02*
D03*
X90945Y94882D02*
D03*
X23228Y78740D02*
D03*
X41339Y88976D02*
D03*
X100783Y85433D02*
D03*
X111221Y93902D02*
D03*
X103347Y93902D02*
D03*
X137205Y55905D02*
D03*
X129921Y68898D02*
D03*
X123031Y93902D02*
D03*
X41339Y85630D02*
D03*
X38386Y87598D02*
D03*
X39370Y62008D02*
D03*
Y59055D02*
D03*
X103347Y67121D02*
D03*
X100783Y79528D02*
D03*
X109252Y93902D02*
D03*
X107283D02*
D03*
X105315Y93902D02*
D03*
X42224Y71240D02*
D03*
X93307Y94095D02*
D03*
X100783Y73622D02*
D03*
X47362Y81240D02*
D03*
Y86240D02*
D03*
X100783Y81496D02*
D03*
X95039Y71653D02*
D03*
X95039Y75590D02*
D03*
X129921Y103386D02*
D03*
X130709Y93937D02*
D03*
X134882Y89764D02*
D03*
X84252Y106850D02*
D03*
X94488Y96850D02*
D03*
X125000Y67121D02*
D03*
X188539Y90507D02*
D03*
X183661Y92362D02*
D03*
X171850Y92362D02*
D03*
X131496Y83465D02*
D03*
X131102Y65512D02*
D03*
Y54173D02*
D03*
X111221Y67121D02*
D03*
X126624Y57677D02*
D03*
X124016Y62598D02*
D03*
X127564Y71653D02*
D03*
X121063Y67121D02*
D03*
X119095D02*
D03*
X117126Y67121D02*
D03*
X115157Y67121D02*
D03*
X135531Y85827D02*
D03*
X150437Y75547D02*
D03*
X127564Y85433D02*
D03*
X127564Y89370D02*
D03*
X103150Y56791D02*
D03*
X107087D02*
D03*
X111417Y56791D02*
D03*
X117471Y61614D02*
D03*
X120079Y62598D02*
D03*
X122047D02*
D03*
X151260Y87795D02*
D03*
X140059Y77953D02*
D03*
X140059Y81890D02*
D03*
X93996Y44094D02*
D03*
X90000Y39764D02*
D03*
Y26772D02*
D03*
Y35433D02*
D03*
Y31102D02*
D03*
X94193Y101476D02*
D03*
X141339Y44390D02*
D03*
X131102Y39075D02*
D03*
X101575Y106850D02*
D03*
X93465Y48031D02*
D03*
X183071Y28051D02*
D03*
X163465Y60787D02*
D03*
X167323D02*
D03*
X175197D02*
D03*
X175787Y92362D02*
D03*
X171260Y32480D02*
D03*
X190650Y20079D02*
D03*
X190650Y24803D02*
D03*
X179134Y32579D02*
D03*
X175984Y17520D02*
D03*
X93465Y18110D02*
D03*
Y22441D02*
D03*
X111909Y22835D02*
D03*
X116437D02*
D03*
X114173Y26575D02*
D03*
Y19094D02*
D03*
X81496Y26772D02*
D03*
X160531Y41732D02*
D03*
X156004D02*
D03*
X158268Y37992D02*
D03*
Y45472D02*
D03*
X89075Y101476D02*
D03*
Y107185D02*
D03*
X157480Y81299D02*
D03*
Y79331D02*
D03*
X157480Y77362D02*
D03*
X163976Y66929D02*
D03*
X162008D02*
D03*
X160039D02*
D03*
X157480Y71457D02*
D03*
X172835Y17520D02*
D03*
Y20276D02*
D03*
X175984D02*
D03*
D152*
X132677Y10236D02*
D03*
X127165D02*
D03*
X187402Y43701D02*
D03*
X102362Y51181D02*
D03*
X70472Y103937D02*
D03*
X111024Y11024D02*
D03*
X205906Y15354D02*
D03*
X203937Y12205D02*
D03*
X157480Y33858D02*
D03*
X153937D02*
D03*
X135039Y27165D02*
D03*
X136221Y45669D02*
D03*
Y37795D02*
D03*
M02*
