G04*
G04 #@! TF.GenerationSoftware,Altium Limited,Altium Designer,25.0.2 (28)*
G04*
G04 Layer_Color=32896*
%FSLAX25Y25*%
%MOIN*%
G70*
G04*
G04 #@! TF.SameCoordinates,B82FF533-CE5D-4E75-9CB9-CDC5554C5AB3*
G04*
G04*
G04 #@! TF.FilePolarity,Positive*
G04*
G01*
G75*
%ADD16C,0.00591*%
%ADD136C,0.01000*%
G36*
X41392Y15140D02*
Y13980D01*
X40646Y13980D01*
Y15157D01*
X39567Y17291D01*
X40354D01*
X40902Y16043D01*
X40914Y16008D01*
X40931Y15962D01*
X40955Y15880D01*
X40961Y15845D01*
X40966Y15816D01*
X40972Y15793D01*
Y15787D01*
X40984D01*
X41001Y15863D01*
X41019Y15927D01*
X41031Y15973D01*
X41042Y16008D01*
X41048Y16032D01*
X41054Y16043D01*
X41060Y16055D01*
X41590Y17291D01*
X42441D01*
X41392Y15140D01*
D02*
G37*
G36*
X56159Y13980D02*
X55460D01*
Y15798D01*
Y15927D01*
Y16037D01*
X55466Y16125D01*
Y16201D01*
X55471Y16259D01*
Y16300D01*
X55477Y16329D01*
Y16335D01*
X55466D01*
X55442Y16294D01*
X55419Y16253D01*
X55367Y16166D01*
X55343Y16125D01*
X55320Y16090D01*
X55308Y16067D01*
X55302Y16061D01*
X53932Y13980D01*
X53180D01*
Y17291D01*
X53886D01*
Y15460D01*
Y15344D01*
X53880Y15245D01*
Y15163D01*
X53874Y15105D01*
Y15058D01*
X53868Y15029D01*
Y15011D01*
Y15006D01*
X53874D01*
X53932Y15105D01*
X53961Y15151D01*
X53985Y15192D01*
X54008Y15227D01*
X54026Y15250D01*
X54037Y15268D01*
X54043Y15274D01*
X55355Y17291D01*
X56159D01*
Y13980D01*
D02*
G37*
G36*
X58043Y17343D02*
X58188Y17326D01*
X58322Y17303D01*
X58451Y17273D01*
X58573Y17233D01*
X58684Y17192D01*
X58783Y17145D01*
X58876Y17104D01*
X58958Y17058D01*
X59028Y17011D01*
X59086Y16970D01*
X59139Y16929D01*
X59179Y16900D01*
X59209Y16877D01*
X59226Y16860D01*
X59232Y16854D01*
X59319Y16760D01*
X59395Y16661D01*
X59465Y16556D01*
X59523Y16451D01*
X59570Y16341D01*
X59611Y16236D01*
X59646Y16131D01*
X59669Y16037D01*
X59692Y15944D01*
X59704Y15857D01*
X59716Y15781D01*
X59727Y15711D01*
Y15658D01*
X59733Y15618D01*
Y15594D01*
Y15583D01*
X59727Y15443D01*
X59716Y15309D01*
X59692Y15180D01*
X59663Y15064D01*
X59628Y14953D01*
X59588Y14854D01*
X59547Y14761D01*
X59500Y14679D01*
X59459Y14609D01*
X59418Y14545D01*
X59378Y14492D01*
X59343Y14446D01*
X59313Y14411D01*
X59290Y14388D01*
X59279Y14370D01*
X59273Y14364D01*
X59185Y14288D01*
X59086Y14219D01*
X58987Y14160D01*
X58882Y14114D01*
X58777Y14067D01*
X58672Y14032D01*
X58567Y14003D01*
X58468Y13980D01*
X58375Y13962D01*
X58287Y13950D01*
X58212Y13939D01*
X58148Y13933D01*
X58089D01*
X58048Y13927D01*
X58013D01*
X57879Y13933D01*
X57751Y13939D01*
X57634Y13950D01*
X57518Y13968D01*
X57413Y13991D01*
X57314Y14015D01*
X57221Y14038D01*
X57139Y14067D01*
X57063Y14090D01*
X56999Y14114D01*
X56941Y14137D01*
X56894Y14160D01*
X56853Y14178D01*
X56830Y14189D01*
X56812Y14201D01*
X56807D01*
Y15863D01*
X58217D01*
Y15268D01*
X57553D01*
Y14621D01*
X57617Y14597D01*
X57687Y14580D01*
X57757Y14562D01*
X57827Y14557D01*
X57885Y14551D01*
X57932Y14545D01*
X57978D01*
X58060Y14551D01*
X58136Y14557D01*
X58276Y14592D01*
X58398Y14633D01*
X58497Y14685D01*
X58579Y14737D01*
X58637Y14784D01*
X58655Y14802D01*
X58672Y14813D01*
X58678Y14819D01*
X58684Y14825D01*
X58731Y14877D01*
X58771Y14941D01*
X58835Y15070D01*
X58882Y15198D01*
X58911Y15326D01*
X58934Y15443D01*
X58940Y15489D01*
Y15536D01*
X58946Y15571D01*
Y15594D01*
Y15612D01*
Y15618D01*
X58940Y15711D01*
X58934Y15798D01*
X58899Y15956D01*
X58853Y16090D01*
X58830Y16154D01*
X58800Y16206D01*
X58771Y16259D01*
X58748Y16300D01*
X58725Y16335D01*
X58701Y16370D01*
X58684Y16393D01*
X58666Y16411D01*
X58661Y16416D01*
X58655Y16422D01*
X58596Y16475D01*
X58538Y16521D01*
X58474Y16562D01*
X58416Y16597D01*
X58287Y16650D01*
X58165Y16690D01*
X58060Y16708D01*
X58013Y16714D01*
X57973Y16720D01*
X57943Y16725D01*
X57897D01*
X57699Y16714D01*
X57518Y16690D01*
X57436Y16673D01*
X57355Y16656D01*
X57285Y16632D01*
X57221Y16615D01*
X57162Y16591D01*
X57110Y16568D01*
X57063Y16551D01*
X57028Y16533D01*
X56999Y16521D01*
X56976Y16510D01*
X56964Y16498D01*
X56958D01*
Y17203D01*
X57116Y17250D01*
X57273Y17285D01*
X57430Y17314D01*
X57576Y17332D01*
X57640Y17338D01*
X57704Y17343D01*
X57757D01*
X57803Y17349D01*
X57891D01*
X58043Y17343D01*
D02*
G37*
G36*
X69685Y13980D02*
X68513D01*
X68367Y13985D01*
X68227Y13997D01*
X68093Y14020D01*
X67971Y14049D01*
X67860Y14084D01*
X67755Y14125D01*
X67656Y14166D01*
X67569Y14213D01*
X67493Y14254D01*
X67423Y14294D01*
X67365Y14335D01*
X67318Y14370D01*
X67277Y14399D01*
X67254Y14423D01*
X67236Y14434D01*
X67231Y14440D01*
X67143Y14527D01*
X67073Y14627D01*
X67003Y14726D01*
X66951Y14825D01*
X66904Y14930D01*
X66863Y15035D01*
X66834Y15134D01*
X66805Y15233D01*
X66787Y15320D01*
X66770Y15408D01*
X66764Y15484D01*
X66752Y15548D01*
Y15600D01*
X66747Y15641D01*
Y15670D01*
Y15676D01*
X66752Y15822D01*
X66764Y15962D01*
X66787Y16090D01*
X66822Y16206D01*
X66863Y16323D01*
X66910Y16422D01*
X66962Y16521D01*
X67021Y16609D01*
X67085Y16690D01*
X67155Y16766D01*
X67231Y16836D01*
X67306Y16894D01*
X67382Y16953D01*
X67464Y17005D01*
X67627Y17087D01*
X67796Y17157D01*
X67953Y17203D01*
X68105Y17244D01*
X68239Y17268D01*
X68297Y17273D01*
X68350Y17279D01*
X68397Y17285D01*
X68437D01*
X68467Y17291D01*
X69685D01*
Y13980D01*
D02*
G37*
G36*
X66193D02*
X64205D01*
Y14580D01*
X65447D01*
Y15338D01*
X64362D01*
Y15944D01*
X65447D01*
Y16685D01*
X64287D01*
Y17291D01*
X66193D01*
Y13980D01*
D02*
G37*
G36*
X61022D02*
X60275D01*
Y17291D01*
X61022D01*
Y13980D01*
D02*
G37*
G36*
X52417D02*
X50429D01*
Y14580D01*
X51670D01*
Y15338D01*
X50586D01*
Y15944D01*
X51670D01*
Y16685D01*
X50510D01*
Y17291D01*
X52417D01*
Y13980D01*
D02*
G37*
G36*
X49898D02*
X48726D01*
X48580Y13985D01*
X48441Y13997D01*
X48306Y14020D01*
X48184Y14049D01*
X48073Y14084D01*
X47968Y14125D01*
X47869Y14166D01*
X47782Y14213D01*
X47706Y14254D01*
X47636Y14294D01*
X47578Y14335D01*
X47531Y14370D01*
X47490Y14399D01*
X47467Y14423D01*
X47449Y14434D01*
X47444Y14440D01*
X47356Y14527D01*
X47286Y14627D01*
X47216Y14726D01*
X47164Y14825D01*
X47117Y14930D01*
X47076Y15035D01*
X47047Y15134D01*
X47018Y15233D01*
X47001Y15320D01*
X46983Y15408D01*
X46977Y15484D01*
X46966Y15548D01*
Y15600D01*
X46960Y15641D01*
Y15670D01*
Y15676D01*
X46966Y15822D01*
X46977Y15962D01*
X47001Y16090D01*
X47036Y16206D01*
X47076Y16323D01*
X47123Y16422D01*
X47175Y16521D01*
X47234Y16609D01*
X47298Y16690D01*
X47368Y16766D01*
X47444Y16836D01*
X47519Y16894D01*
X47595Y16953D01*
X47677Y17005D01*
X47840Y17087D01*
X48009Y17157D01*
X48166Y17203D01*
X48318Y17244D01*
X48452Y17268D01*
X48511Y17273D01*
X48563Y17279D01*
X48610Y17285D01*
X48650D01*
X48680Y17291D01*
X49898D01*
Y13980D01*
D02*
G37*
G36*
X45100D02*
X43829D01*
X43724Y13985D01*
X43631Y13991D01*
X43538Y14003D01*
X43450Y14020D01*
X43374Y14038D01*
X43299Y14061D01*
X43229Y14084D01*
X43170Y14114D01*
X43118Y14137D01*
X43071Y14160D01*
X43030Y14184D01*
X42995Y14201D01*
X42972Y14219D01*
X42954Y14230D01*
X42943Y14242D01*
X42937D01*
X42879Y14294D01*
X42826Y14353D01*
X42785Y14411D01*
X42750Y14469D01*
X42692Y14586D01*
X42651Y14702D01*
X42628Y14807D01*
X42622Y14854D01*
X42616Y14889D01*
X42610Y14924D01*
Y14947D01*
Y14959D01*
Y14965D01*
X42622Y15076D01*
X42645Y15180D01*
X42680Y15274D01*
X42715Y15349D01*
X42756Y15408D01*
X42791Y15454D01*
X42815Y15484D01*
X42826Y15495D01*
X42908Y15571D01*
X43001Y15629D01*
X43094Y15676D01*
X43188Y15705D01*
X43269Y15734D01*
X43333Y15746D01*
X43357Y15752D01*
X43374Y15758D01*
X43392D01*
Y15764D01*
X43287Y15798D01*
X43199Y15839D01*
X43118Y15886D01*
X43054Y15933D01*
X42995Y15979D01*
X42960Y16014D01*
X42931Y16037D01*
X42925Y16043D01*
X42867Y16125D01*
X42820Y16201D01*
X42791Y16282D01*
X42768Y16358D01*
X42756Y16422D01*
X42745Y16469D01*
Y16504D01*
Y16515D01*
X42750Y16586D01*
X42756Y16644D01*
X42791Y16760D01*
X42838Y16860D01*
X42890Y16941D01*
X42949Y17005D01*
X42995Y17052D01*
X43030Y17075D01*
X43036Y17087D01*
X43042D01*
X43100Y17122D01*
X43164Y17157D01*
X43299Y17203D01*
X43444Y17239D01*
X43584Y17268D01*
X43648Y17273D01*
X43707Y17279D01*
X43759Y17285D01*
X43806D01*
X43846Y17291D01*
X45100D01*
Y13980D01*
D02*
G37*
G36*
X62730Y17338D02*
X62817Y17332D01*
X62893Y17320D01*
X62957Y17308D01*
X63004Y17303D01*
X63033Y17291D01*
X63045D01*
X63132Y17268D01*
X63208Y17239D01*
X63278Y17209D01*
X63336Y17180D01*
X63389Y17151D01*
X63424Y17128D01*
X63453Y17116D01*
X63459Y17110D01*
X63523Y17064D01*
X63575Y17011D01*
X63622Y16964D01*
X63663Y16918D01*
X63698Y16871D01*
X63721Y16836D01*
X63733Y16813D01*
X63738Y16807D01*
X63773Y16737D01*
X63797Y16661D01*
X63820Y16586D01*
X63832Y16515D01*
X63837Y16457D01*
X63843Y16405D01*
Y16376D01*
Y16370D01*
Y16364D01*
X63837Y16241D01*
X63814Y16137D01*
X63785Y16037D01*
X63750Y15956D01*
X63715Y15892D01*
X63686Y15839D01*
X63663Y15810D01*
X63657Y15798D01*
X63575Y15717D01*
X63482Y15641D01*
X63389Y15571D01*
X63295Y15513D01*
X63208Y15466D01*
X63138Y15431D01*
X63109Y15419D01*
X63091Y15408D01*
X63080Y15402D01*
X63074D01*
X62963Y15355D01*
X62916Y15338D01*
X62876Y15315D01*
X62841Y15303D01*
X62817Y15291D01*
X62800Y15280D01*
X62794D01*
X62701Y15239D01*
X62666Y15215D01*
X62631Y15198D01*
X62602Y15180D01*
X62584Y15169D01*
X62572Y15163D01*
X62567Y15157D01*
X62502Y15105D01*
X62456Y15058D01*
X62427Y15023D01*
X62415Y15017D01*
Y15011D01*
X62380Y14953D01*
X62363Y14901D01*
X62357Y14877D01*
Y14860D01*
Y14848D01*
Y14842D01*
X62363Y14790D01*
X62374Y14749D01*
X62386Y14720D01*
X62392Y14714D01*
Y14708D01*
X62421Y14662D01*
X62456Y14627D01*
X62485Y14603D01*
X62491Y14597D01*
X62497D01*
X62555Y14568D01*
X62607Y14545D01*
X62637Y14539D01*
X62654Y14533D01*
X62666Y14527D01*
X62672D01*
X62753Y14516D01*
X62835Y14510D01*
X62864Y14504D01*
X62916D01*
X63004Y14510D01*
X63091Y14516D01*
X63173Y14527D01*
X63243Y14545D01*
X63307Y14562D01*
X63354Y14574D01*
X63383Y14580D01*
X63394Y14586D01*
X63482Y14621D01*
X63564Y14662D01*
X63634Y14708D01*
X63698Y14749D01*
X63756Y14784D01*
X63797Y14813D01*
X63820Y14837D01*
X63832Y14842D01*
Y14102D01*
X63762Y14067D01*
X63686Y14044D01*
X63616Y14020D01*
X63552Y14003D01*
X63494Y13985D01*
X63447Y13974D01*
X63418Y13968D01*
X63406D01*
X63220Y13945D01*
X63132Y13939D01*
X63051Y13933D01*
X62981Y13927D01*
X62782D01*
X62695Y13933D01*
X62607Y13945D01*
X62532Y13950D01*
X62467Y13962D01*
X62421Y13968D01*
X62392Y13974D01*
X62380D01*
X62293Y13997D01*
X62211Y14020D01*
X62141Y14044D01*
X62083Y14073D01*
X62030Y14096D01*
X61989Y14119D01*
X61966Y14131D01*
X61960Y14137D01*
X61896Y14184D01*
X61838Y14236D01*
X61791Y14283D01*
X61750Y14335D01*
X61715Y14376D01*
X61692Y14411D01*
X61680Y14434D01*
X61675Y14440D01*
X61640Y14516D01*
X61616Y14592D01*
X61593Y14673D01*
X61581Y14743D01*
X61576Y14807D01*
X61570Y14860D01*
Y14895D01*
Y14901D01*
Y14907D01*
Y14982D01*
X61581Y15046D01*
X61587Y15111D01*
X61599Y15163D01*
X61611Y15204D01*
X61616Y15233D01*
X61628Y15256D01*
Y15262D01*
X61680Y15367D01*
X61710Y15414D01*
X61739Y15454D01*
X61762Y15484D01*
X61785Y15513D01*
X61797Y15524D01*
X61803Y15530D01*
X61890Y15612D01*
X61984Y15682D01*
X62019Y15705D01*
X62048Y15723D01*
X62071Y15734D01*
X62077Y15740D01*
X62199Y15810D01*
X62258Y15839D01*
X62316Y15868D01*
X62363Y15886D01*
X62397Y15903D01*
X62421Y15915D01*
X62432Y15921D01*
X62537Y15962D01*
X62578Y15979D01*
X62619Y15997D01*
X62648Y16014D01*
X62672Y16020D01*
X62689Y16032D01*
X62695D01*
X62771Y16072D01*
X62835Y16113D01*
X62858Y16125D01*
X62870Y16137D01*
X62881Y16148D01*
X62887D01*
X62940Y16195D01*
X62981Y16236D01*
X63004Y16265D01*
X63016Y16276D01*
X63039Y16329D01*
X63051Y16376D01*
X63056Y16411D01*
Y16416D01*
Y16422D01*
X63051Y16475D01*
X63039Y16515D01*
X63027Y16545D01*
X63021Y16556D01*
X62986Y16603D01*
X62951Y16638D01*
X62922Y16661D01*
X62911Y16667D01*
X62852Y16696D01*
X62794Y16720D01*
X62765Y16725D01*
X62747Y16731D01*
X62736Y16737D01*
X62730D01*
X62648Y16749D01*
X62578Y16760D01*
X62432D01*
X62368Y16755D01*
X62345Y16749D01*
X62328D01*
X62316Y16743D01*
X62310D01*
X62234Y16731D01*
X62164Y16720D01*
X62141Y16714D01*
X62118Y16708D01*
X62106Y16702D01*
X62100D01*
X62024Y16679D01*
X61960Y16656D01*
X61931Y16644D01*
X61914Y16632D01*
X61902Y16626D01*
X61896D01*
X61826Y16591D01*
X61768Y16562D01*
X61745Y16551D01*
X61727Y16539D01*
X61721Y16527D01*
X61715D01*
Y17221D01*
X61844Y17262D01*
X61908Y17279D01*
X61960Y17291D01*
X62013Y17303D01*
X62048Y17308D01*
X62071Y17314D01*
X62083D01*
X62159Y17326D01*
X62240Y17338D01*
X62316Y17343D01*
X62386D01*
X62450Y17349D01*
X62642D01*
X62730Y17338D01*
D02*
G37*
G36*
X59261Y11055D02*
Y9895D01*
X58515D01*
Y11073D01*
X57436Y13206D01*
X58223D01*
X58771Y11959D01*
X58783Y11924D01*
X58800Y11877D01*
X58824Y11796D01*
X58830Y11761D01*
X58835Y11731D01*
X58841Y11708D01*
Y11702D01*
X58853D01*
X58870Y11778D01*
X58888Y11842D01*
X58899Y11889D01*
X58911Y11924D01*
X58917Y11947D01*
X58923Y11959D01*
X58929Y11970D01*
X59459Y13206D01*
X60310D01*
X59261Y11055D01*
D02*
G37*
G36*
X63674Y9895D02*
X62975D01*
Y11714D01*
Y11842D01*
Y11953D01*
X62981Y12040D01*
Y12116D01*
X62986Y12174D01*
Y12215D01*
X62992Y12245D01*
Y12250D01*
X62981D01*
X62957Y12210D01*
X62934Y12169D01*
X62881Y12081D01*
X62858Y12040D01*
X62835Y12005D01*
X62823Y11982D01*
X62817Y11976D01*
X61447Y9895D01*
X60695D01*
Y13206D01*
X61401D01*
Y11376D01*
Y11259D01*
X61395Y11160D01*
Y11079D01*
X61389Y11020D01*
Y10973D01*
X61383Y10944D01*
Y10927D01*
Y10921D01*
X61389D01*
X61447Y11020D01*
X61476Y11067D01*
X61500Y11108D01*
X61523Y11143D01*
X61541Y11166D01*
X61552Y11183D01*
X61558Y11189D01*
X62870Y13206D01*
X63674D01*
Y9895D01*
D02*
G37*
G36*
X46470D02*
X45770D01*
Y11714D01*
Y11842D01*
Y11953D01*
X45776Y12040D01*
Y12116D01*
X45782Y12174D01*
Y12215D01*
X45788Y12245D01*
Y12250D01*
X45776D01*
X45753Y12210D01*
X45730Y12169D01*
X45677Y12081D01*
X45654Y12040D01*
X45630Y12005D01*
X45619Y11982D01*
X45613Y11976D01*
X44243Y9895D01*
X43491D01*
Y13206D01*
X44196D01*
Y11376D01*
Y11259D01*
X44190Y11160D01*
Y11079D01*
X44185Y11020D01*
Y10973D01*
X44179Y10944D01*
Y10927D01*
Y10921D01*
X44185D01*
X44243Y11020D01*
X44272Y11067D01*
X44295Y11108D01*
X44319Y11143D01*
X44336Y11166D01*
X44348Y11183D01*
X44354Y11189D01*
X45665Y13206D01*
X46470D01*
Y9895D01*
D02*
G37*
G36*
X69685D02*
X68513D01*
X68367Y9901D01*
X68227Y9912D01*
X68093Y9936D01*
X67971Y9965D01*
X67860Y10000D01*
X67755Y10041D01*
X67656Y10082D01*
X67569Y10128D01*
X67493Y10169D01*
X67423Y10210D01*
X67365Y10251D01*
X67318Y10286D01*
X67277Y10315D01*
X67254Y10338D01*
X67236Y10350D01*
X67231Y10356D01*
X67143Y10443D01*
X67073Y10542D01*
X67003Y10641D01*
X66951Y10740D01*
X66904Y10845D01*
X66863Y10950D01*
X66834Y11049D01*
X66805Y11148D01*
X66787Y11236D01*
X66770Y11323D01*
X66764Y11399D01*
X66752Y11463D01*
Y11516D01*
X66747Y11557D01*
Y11586D01*
Y11592D01*
X66752Y11737D01*
X66764Y11877D01*
X66787Y12005D01*
X66822Y12122D01*
X66863Y12239D01*
X66910Y12338D01*
X66962Y12437D01*
X67021Y12524D01*
X67085Y12606D01*
X67155Y12682D01*
X67231Y12752D01*
X67306Y12810D01*
X67382Y12868D01*
X67464Y12921D01*
X67627Y13002D01*
X67796Y13072D01*
X67953Y13119D01*
X68105Y13160D01*
X68239Y13183D01*
X68297Y13189D01*
X68350Y13195D01*
X68397Y13201D01*
X68437D01*
X68467Y13206D01*
X69685D01*
Y9895D01*
D02*
G37*
G36*
X66193D02*
X64205D01*
Y10496D01*
X65447D01*
Y11253D01*
X64362D01*
Y11860D01*
X65447D01*
Y12600D01*
X64287D01*
Y13206D01*
X66193D01*
Y9895D01*
D02*
G37*
G36*
X53099D02*
X51828D01*
X51723Y9901D01*
X51630Y9907D01*
X51536Y9918D01*
X51449Y9936D01*
X51373Y9953D01*
X51297Y9977D01*
X51227Y10000D01*
X51169Y10029D01*
X51117Y10052D01*
X51070Y10076D01*
X51029Y10099D01*
X50994Y10116D01*
X50971Y10134D01*
X50953Y10146D01*
X50942Y10157D01*
X50936D01*
X50877Y10210D01*
X50825Y10268D01*
X50784Y10326D01*
X50749Y10385D01*
X50691Y10501D01*
X50650Y10618D01*
X50627Y10723D01*
X50621Y10769D01*
X50615Y10804D01*
X50609Y10839D01*
Y10863D01*
Y10874D01*
Y10880D01*
X50621Y10991D01*
X50644Y11096D01*
X50679Y11189D01*
X50714Y11265D01*
X50755Y11323D01*
X50790Y11370D01*
X50813Y11399D01*
X50825Y11411D01*
X50907Y11487D01*
X51000Y11545D01*
X51093Y11592D01*
X51187Y11621D01*
X51268Y11650D01*
X51332Y11661D01*
X51355Y11667D01*
X51373Y11673D01*
X51390D01*
Y11679D01*
X51286Y11714D01*
X51198Y11755D01*
X51117Y11801D01*
X51052Y11848D01*
X50994Y11895D01*
X50959Y11930D01*
X50930Y11953D01*
X50924Y11959D01*
X50866Y12040D01*
X50819Y12116D01*
X50790Y12198D01*
X50767Y12274D01*
X50755Y12338D01*
X50743Y12384D01*
Y12419D01*
Y12431D01*
X50749Y12501D01*
X50755Y12559D01*
X50790Y12676D01*
X50837Y12775D01*
X50889Y12857D01*
X50947Y12921D01*
X50994Y12967D01*
X51029Y12991D01*
X51035Y13002D01*
X51041D01*
X51099Y13037D01*
X51163Y13072D01*
X51297Y13119D01*
X51443Y13154D01*
X51583Y13183D01*
X51647Y13189D01*
X51705Y13195D01*
X51758Y13201D01*
X51804D01*
X51845Y13206D01*
X53099D01*
Y9895D01*
D02*
G37*
G36*
X42727D02*
X41555D01*
X41410Y9901D01*
X41270Y9912D01*
X41135Y9936D01*
X41013Y9965D01*
X40902Y10000D01*
X40797Y10041D01*
X40698Y10081D01*
X40611Y10128D01*
X40535Y10169D01*
X40465Y10210D01*
X40407Y10251D01*
X40360Y10286D01*
X40319Y10315D01*
X40296Y10338D01*
X40279Y10350D01*
X40273Y10356D01*
X40185Y10443D01*
X40115Y10542D01*
X40045Y10641D01*
X39993Y10740D01*
X39946Y10845D01*
X39905Y10950D01*
X39876Y11049D01*
X39847Y11148D01*
X39830Y11236D01*
X39812Y11323D01*
X39806Y11399D01*
X39795Y11463D01*
Y11516D01*
X39789Y11557D01*
Y11586D01*
Y11592D01*
X39795Y11737D01*
X39806Y11877D01*
X39830Y12005D01*
X39865Y12122D01*
X39905Y12239D01*
X39952Y12338D01*
X40005Y12437D01*
X40063Y12524D01*
X40127Y12606D01*
X40197Y12682D01*
X40273Y12752D01*
X40349Y12810D01*
X40424Y12868D01*
X40506Y12921D01*
X40669Y13002D01*
X40838Y13072D01*
X40996Y13119D01*
X41147Y13160D01*
X41281Y13183D01*
X41340Y13189D01*
X41392Y13195D01*
X41439Y13201D01*
X41480D01*
X41509Y13206D01*
X42727D01*
Y9895D01*
D02*
G37*
G36*
X39596Y9895D02*
X38786D01*
X38553Y10630D01*
X37375D01*
X37136Y9895D01*
X36326D01*
X37503Y13206D01*
X38390D01*
X39596Y9895D01*
D02*
G37*
G36*
X35906D02*
X35160D01*
Y11160D01*
X34962D01*
X34909Y11154D01*
X34868Y11148D01*
X34845Y11137D01*
X34833Y11131D01*
X34793Y11108D01*
X34758Y11079D01*
X34734Y11061D01*
X34723Y11049D01*
X34682Y11009D01*
X34647Y10962D01*
X34623Y10927D01*
X34612Y10921D01*
Y10915D01*
X34571Y10857D01*
X34536Y10804D01*
X34524Y10781D01*
X34513Y10764D01*
X34501Y10752D01*
Y10746D01*
X33988Y9895D01*
X33125D01*
X33755Y10874D01*
X33790Y10933D01*
X33825Y10979D01*
X33848Y11014D01*
X33860Y11020D01*
Y11026D01*
X33906Y11084D01*
X33947Y11131D01*
X33976Y11166D01*
X33982Y11172D01*
X33988Y11178D01*
X34035Y11224D01*
X34081Y11265D01*
X34110Y11288D01*
X34116Y11300D01*
X34122D01*
X34169Y11335D01*
X34215Y11358D01*
X34250Y11370D01*
X34256Y11376D01*
X34262D01*
Y11382D01*
X34145Y11422D01*
X34093Y11446D01*
X34046Y11469D01*
X34011Y11487D01*
X33982Y11504D01*
X33965Y11510D01*
X33959Y11516D01*
X33865Y11586D01*
X33825Y11621D01*
X33790Y11650D01*
X33761Y11679D01*
X33743Y11702D01*
X33731Y11714D01*
X33726Y11720D01*
X33661Y11813D01*
X33615Y11895D01*
X33597Y11930D01*
X33586Y11959D01*
X33574Y11976D01*
Y11982D01*
X33545Y12099D01*
X33533Y12151D01*
X33527Y12198D01*
X33522Y12239D01*
Y12274D01*
Y12297D01*
Y12303D01*
X33527Y12384D01*
X33533Y12460D01*
X33551Y12536D01*
X33574Y12600D01*
X33632Y12722D01*
X33708Y12828D01*
X33801Y12915D01*
X33900Y12985D01*
X34011Y13043D01*
X34122Y13096D01*
X34233Y13131D01*
X34344Y13160D01*
X34443Y13177D01*
X34536Y13195D01*
X34612Y13201D01*
X34670Y13206D01*
X35906D01*
Y9895D01*
D02*
G37*
G36*
X56113Y13253D02*
X56200Y13247D01*
X56276Y13236D01*
X56340Y13224D01*
X56387Y13218D01*
X56416Y13206D01*
X56428D01*
X56515Y13183D01*
X56591Y13154D01*
X56661Y13125D01*
X56719Y13096D01*
X56772Y13067D01*
X56807Y13043D01*
X56836Y13032D01*
X56841Y13026D01*
X56906Y12979D01*
X56958Y12927D01*
X57005Y12880D01*
X57046Y12833D01*
X57081Y12787D01*
X57104Y12752D01*
X57116Y12728D01*
X57121Y12722D01*
X57156Y12653D01*
X57180Y12577D01*
X57203Y12501D01*
X57215Y12431D01*
X57221Y12373D01*
X57226Y12320D01*
Y12291D01*
Y12285D01*
Y12280D01*
X57221Y12157D01*
X57197Y12052D01*
X57168Y11953D01*
X57133Y11871D01*
X57098Y11807D01*
X57069Y11755D01*
X57046Y11726D01*
X57040Y11714D01*
X56958Y11632D01*
X56865Y11557D01*
X56772Y11487D01*
X56678Y11428D01*
X56591Y11382D01*
X56521Y11347D01*
X56492Y11335D01*
X56474Y11323D01*
X56463Y11317D01*
X56457D01*
X56346Y11271D01*
X56299Y11253D01*
X56259Y11230D01*
X56224Y11218D01*
X56200Y11207D01*
X56183Y11195D01*
X56177D01*
X56084Y11154D01*
X56049Y11131D01*
X56014Y11113D01*
X55984Y11096D01*
X55967Y11084D01*
X55955Y11079D01*
X55950Y11073D01*
X55885Y11020D01*
X55839Y10973D01*
X55810Y10939D01*
X55798Y10933D01*
Y10927D01*
X55763Y10869D01*
X55746Y10816D01*
X55740Y10793D01*
Y10775D01*
Y10764D01*
Y10758D01*
X55746Y10705D01*
X55757Y10665D01*
X55769Y10635D01*
X55775Y10630D01*
Y10624D01*
X55804Y10577D01*
X55839Y10542D01*
X55868Y10519D01*
X55874Y10513D01*
X55880D01*
X55938Y10484D01*
X55990Y10460D01*
X56020Y10455D01*
X56037Y10449D01*
X56049Y10443D01*
X56055D01*
X56136Y10431D01*
X56218Y10425D01*
X56247Y10420D01*
X56299D01*
X56387Y10425D01*
X56474Y10431D01*
X56556Y10443D01*
X56626Y10460D01*
X56690Y10478D01*
X56737Y10490D01*
X56766Y10496D01*
X56777Y10501D01*
X56865Y10536D01*
X56946Y10577D01*
X57016Y10624D01*
X57081Y10665D01*
X57139Y10700D01*
X57180Y10729D01*
X57203Y10752D01*
X57215Y10758D01*
Y10017D01*
X57145Y9982D01*
X57069Y9959D01*
X56999Y9936D01*
X56935Y9918D01*
X56876Y9901D01*
X56830Y9889D01*
X56801Y9883D01*
X56789D01*
X56603Y9860D01*
X56515Y9854D01*
X56433Y9848D01*
X56363Y9843D01*
X56165D01*
X56078Y9848D01*
X55990Y9860D01*
X55915Y9866D01*
X55850Y9877D01*
X55804Y9883D01*
X55775Y9889D01*
X55763D01*
X55676Y9912D01*
X55594Y9936D01*
X55524Y9959D01*
X55466Y9988D01*
X55413Y10012D01*
X55372Y10035D01*
X55349Y10047D01*
X55343Y10052D01*
X55279Y10099D01*
X55221Y10152D01*
X55174Y10198D01*
X55133Y10251D01*
X55098Y10291D01*
X55075Y10326D01*
X55063Y10350D01*
X55058Y10356D01*
X55023Y10431D01*
X54999Y10507D01*
X54976Y10589D01*
X54964Y10659D01*
X54958Y10723D01*
X54953Y10775D01*
Y10810D01*
Y10816D01*
Y10822D01*
Y10898D01*
X54964Y10962D01*
X54970Y11026D01*
X54982Y11079D01*
X54993Y11119D01*
X54999Y11148D01*
X55011Y11172D01*
Y11178D01*
X55063Y11282D01*
X55093Y11329D01*
X55122Y11370D01*
X55145Y11399D01*
X55168Y11428D01*
X55180Y11440D01*
X55186Y11446D01*
X55273Y11527D01*
X55367Y11597D01*
X55401Y11621D01*
X55431Y11638D01*
X55454Y11650D01*
X55460Y11656D01*
X55582Y11726D01*
X55641Y11755D01*
X55699Y11784D01*
X55746Y11801D01*
X55781Y11819D01*
X55804Y11830D01*
X55816Y11836D01*
X55920Y11877D01*
X55961Y11895D01*
X56002Y11912D01*
X56031Y11930D01*
X56055Y11936D01*
X56072Y11947D01*
X56078D01*
X56154Y11988D01*
X56218Y12029D01*
X56241Y12040D01*
X56253Y12052D01*
X56264Y12064D01*
X56270D01*
X56323Y12110D01*
X56363Y12151D01*
X56387Y12180D01*
X56398Y12192D01*
X56422Y12245D01*
X56433Y12291D01*
X56439Y12326D01*
Y12332D01*
Y12338D01*
X56433Y12390D01*
X56422Y12431D01*
X56410Y12460D01*
X56404Y12472D01*
X56369Y12518D01*
X56334Y12553D01*
X56305Y12577D01*
X56293Y12583D01*
X56235Y12612D01*
X56177Y12635D01*
X56148Y12641D01*
X56130Y12647D01*
X56119Y12653D01*
X56113D01*
X56031Y12664D01*
X55961Y12676D01*
X55816D01*
X55751Y12670D01*
X55728Y12664D01*
X55711D01*
X55699Y12658D01*
X55693D01*
X55617Y12647D01*
X55547Y12635D01*
X55524Y12629D01*
X55501Y12623D01*
X55489Y12618D01*
X55483D01*
X55407Y12594D01*
X55343Y12571D01*
X55314Y12559D01*
X55297Y12548D01*
X55285Y12542D01*
X55279D01*
X55209Y12507D01*
X55151Y12478D01*
X55128Y12466D01*
X55110Y12454D01*
X55104Y12443D01*
X55098D01*
Y13137D01*
X55227Y13177D01*
X55291Y13195D01*
X55343Y13206D01*
X55396Y13218D01*
X55431Y13224D01*
X55454Y13230D01*
X55466D01*
X55541Y13241D01*
X55623Y13253D01*
X55699Y13259D01*
X55769D01*
X55833Y13265D01*
X56025D01*
X56113Y13253D01*
D02*
G37*
G36*
X48750Y13259D02*
X48878Y13241D01*
X49000Y13218D01*
X49117Y13189D01*
X49222Y13154D01*
X49321Y13107D01*
X49414Y13067D01*
X49496Y13020D01*
X49566Y12973D01*
X49630Y12932D01*
X49688Y12892D01*
X49735Y12851D01*
X49770Y12822D01*
X49793Y12798D01*
X49811Y12781D01*
X49816Y12775D01*
X49898Y12682D01*
X49968Y12583D01*
X50026Y12478D01*
X50079Y12373D01*
X50125Y12268D01*
X50160Y12163D01*
X50190Y12058D01*
X50213Y11959D01*
X50230Y11866D01*
X50248Y11778D01*
X50260Y11702D01*
X50265Y11632D01*
Y11580D01*
X50271Y11539D01*
Y11516D01*
Y11504D01*
X50265Y11370D01*
X50254Y11242D01*
X50230Y11119D01*
X50201Y11003D01*
X50166Y10898D01*
X50131Y10799D01*
X50090Y10711D01*
X50044Y10624D01*
X50003Y10554D01*
X49962Y10490D01*
X49927Y10431D01*
X49892Y10385D01*
X49863Y10350D01*
X49840Y10326D01*
X49828Y10309D01*
X49822Y10303D01*
X49735Y10221D01*
X49641Y10152D01*
X49548Y10087D01*
X49449Y10035D01*
X49356Y9994D01*
X49257Y9953D01*
X49163Y9924D01*
X49076Y9901D01*
X48989Y9883D01*
X48913Y9866D01*
X48843Y9854D01*
X48779Y9848D01*
X48732D01*
X48691Y9843D01*
X48662D01*
X48528Y9848D01*
X48400Y9866D01*
X48283Y9889D01*
X48172Y9918D01*
X48062Y9953D01*
X47968Y9994D01*
X47875Y10035D01*
X47799Y10082D01*
X47723Y10122D01*
X47659Y10163D01*
X47607Y10204D01*
X47560Y10239D01*
X47525Y10274D01*
X47502Y10297D01*
X47484Y10309D01*
X47479Y10315D01*
X47397Y10408D01*
X47327Y10507D01*
X47269Y10606D01*
X47216Y10711D01*
X47170Y10816D01*
X47135Y10921D01*
X47106Y11026D01*
X47082Y11125D01*
X47065Y11218D01*
X47047Y11300D01*
X47036Y11376D01*
X47030Y11446D01*
X47024Y11498D01*
Y11539D01*
Y11568D01*
Y11574D01*
X47030Y11714D01*
X47041Y11842D01*
X47065Y11970D01*
X47094Y12087D01*
X47123Y12192D01*
X47164Y12297D01*
X47199Y12384D01*
X47240Y12472D01*
X47280Y12548D01*
X47321Y12612D01*
X47362Y12670D01*
X47391Y12717D01*
X47420Y12752D01*
X47444Y12775D01*
X47455Y12792D01*
X47461Y12798D01*
X47548Y12880D01*
X47636Y12950D01*
X47729Y13014D01*
X47822Y13067D01*
X47922Y13113D01*
X48015Y13154D01*
X48108Y13183D01*
X48202Y13206D01*
X48283Y13224D01*
X48359Y13241D01*
X48429Y13253D01*
X48493Y13259D01*
X48540Y13265D01*
X48610D01*
X48750Y13259D01*
D02*
G37*
G36*
X34363Y68634D02*
X34521Y68611D01*
X34655Y68582D01*
X34777Y68553D01*
X34830Y68535D01*
X34876Y68518D01*
X34917Y68500D01*
X34946Y68489D01*
X34975Y68477D01*
X34993Y68465D01*
X35005Y68459D01*
X35010D01*
Y67865D01*
X34894Y67935D01*
X34777Y67987D01*
X34666Y68028D01*
X34567Y68051D01*
X34486Y68069D01*
X34422Y68075D01*
X34398Y68081D01*
X34363D01*
X34276Y68075D01*
X34200Y68063D01*
X34130Y68046D01*
X34072Y68016D01*
X34025Y67987D01*
X33984Y67952D01*
X33949Y67917D01*
X33926Y67882D01*
X33903Y67842D01*
X33891Y67807D01*
X33868Y67742D01*
Y67713D01*
X33862Y67696D01*
Y67684D01*
Y67678D01*
X33868Y67602D01*
X33891Y67538D01*
X33920Y67480D01*
X33961Y67428D01*
X34014Y67387D01*
X34066Y67352D01*
X34124Y67323D01*
X34183Y67299D01*
X34305Y67270D01*
X34357Y67259D01*
X34410Y67253D01*
X34451D01*
X34480Y67247D01*
X34795D01*
Y66687D01*
X34486D01*
X34369Y66681D01*
X34264Y66670D01*
X34171Y66646D01*
X34101Y66629D01*
X34037Y66606D01*
X33996Y66582D01*
X33967Y66571D01*
X33961Y66565D01*
X33897Y66518D01*
X33844Y66466D01*
X33809Y66407D01*
X33786Y66355D01*
X33774Y66302D01*
X33763Y66262D01*
Y66238D01*
Y66227D01*
X33769Y66151D01*
X33786Y66081D01*
X33815Y66023D01*
X33839Y65976D01*
X33868Y65941D01*
X33897Y65912D01*
X33914Y65894D01*
X33920Y65889D01*
X33984Y65848D01*
X34054Y65819D01*
X34130Y65801D01*
X34200Y65789D01*
X34258Y65778D01*
X34311Y65772D01*
X34357D01*
X34521Y65784D01*
X34666Y65807D01*
X34795Y65848D01*
X34911Y65894D01*
X34958Y65912D01*
X35005Y65935D01*
X35039Y65958D01*
X35074Y65976D01*
X35098Y65988D01*
X35115Y65999D01*
X35127Y66011D01*
X35133D01*
Y65375D01*
X35005Y65323D01*
X34865Y65282D01*
X34730Y65259D01*
X34596Y65236D01*
X34480Y65224D01*
X34427D01*
X34387Y65218D01*
X34299D01*
X34188Y65224D01*
X34083Y65230D01*
X33990Y65241D01*
X33897Y65259D01*
X33815Y65276D01*
X33739Y65300D01*
X33669Y65323D01*
X33605Y65352D01*
X33547Y65375D01*
X33500Y65399D01*
X33460Y65422D01*
X33425Y65440D01*
X33395Y65457D01*
X33378Y65469D01*
X33366Y65480D01*
X33360D01*
X33302Y65533D01*
X33250Y65591D01*
X33203Y65649D01*
X33162Y65708D01*
X33133Y65772D01*
X33104Y65830D01*
X33063Y65947D01*
X33040Y66052D01*
X33034Y66098D01*
X33028Y66139D01*
X33022Y66168D01*
Y66198D01*
Y66209D01*
Y66215D01*
X33028Y66326D01*
X33051Y66425D01*
X33086Y66512D01*
X33121Y66588D01*
X33162Y66652D01*
X33191Y66699D01*
X33215Y66722D01*
X33226Y66734D01*
X33308Y66804D01*
X33395Y66862D01*
X33489Y66909D01*
X33576Y66944D01*
X33658Y66967D01*
X33722Y66979D01*
X33745Y66984D01*
X33763Y66990D01*
X33780D01*
Y67002D01*
X33664Y67037D01*
X33565Y67084D01*
X33477Y67136D01*
X33401Y67200D01*
X33337Y67264D01*
X33285Y67329D01*
X33238Y67399D01*
X33203Y67468D01*
X33174Y67538D01*
X33156Y67597D01*
X33139Y67655D01*
X33133Y67707D01*
X33127Y67754D01*
X33121Y67783D01*
Y67807D01*
Y67812D01*
X33127Y67882D01*
X33133Y67946D01*
X33168Y68063D01*
X33209Y68162D01*
X33261Y68250D01*
X33314Y68314D01*
X33360Y68366D01*
X33395Y68395D01*
X33401Y68407D01*
X33407D01*
X33524Y68483D01*
X33646Y68541D01*
X33780Y68582D01*
X33903Y68611D01*
X34019Y68629D01*
X34066Y68634D01*
X34113D01*
X34148Y68640D01*
X34194D01*
X34363Y68634D01*
D02*
G37*
G36*
X36730Y68629D02*
X36818Y68623D01*
X36893Y68611D01*
X36958Y68599D01*
X37004Y68594D01*
X37033Y68582D01*
X37045D01*
X37132Y68559D01*
X37208Y68529D01*
X37278Y68500D01*
X37337Y68471D01*
X37389Y68442D01*
X37424Y68419D01*
X37453Y68407D01*
X37459Y68401D01*
X37523Y68355D01*
X37576Y68302D01*
X37622Y68256D01*
X37663Y68209D01*
X37698Y68162D01*
X37721Y68127D01*
X37733Y68104D01*
X37739Y68098D01*
X37774Y68028D01*
X37797Y67952D01*
X37820Y67876D01*
X37832Y67807D01*
X37838Y67748D01*
X37844Y67696D01*
Y67667D01*
Y67661D01*
Y67655D01*
X37838Y67532D01*
X37815Y67428D01*
X37786Y67329D01*
X37751Y67247D01*
X37716Y67183D01*
X37686Y67130D01*
X37663Y67101D01*
X37657Y67089D01*
X37576Y67008D01*
X37482Y66932D01*
X37389Y66862D01*
X37296Y66804D01*
X37208Y66757D01*
X37138Y66722D01*
X37109Y66711D01*
X37092Y66699D01*
X37080Y66693D01*
X37074D01*
X36963Y66646D01*
X36917Y66629D01*
X36876Y66606D01*
X36841Y66594D01*
X36818Y66582D01*
X36800Y66571D01*
X36794D01*
X36701Y66530D01*
X36666Y66506D01*
X36631Y66489D01*
X36602Y66471D01*
X36584Y66460D01*
X36573Y66454D01*
X36567Y66448D01*
X36503Y66396D01*
X36456Y66349D01*
X36427Y66314D01*
X36415Y66308D01*
Y66302D01*
X36380Y66244D01*
X36363Y66192D01*
X36357Y66168D01*
Y66151D01*
Y66139D01*
Y66133D01*
X36363Y66081D01*
X36375Y66040D01*
X36386Y66011D01*
X36392Y66005D01*
Y65999D01*
X36421Y65953D01*
X36456Y65918D01*
X36485Y65894D01*
X36491Y65889D01*
X36497D01*
X36555Y65859D01*
X36608Y65836D01*
X36637Y65830D01*
X36654Y65824D01*
X36666Y65819D01*
X36672D01*
X36754Y65807D01*
X36835Y65801D01*
X36864Y65795D01*
X36917D01*
X37004Y65801D01*
X37092Y65807D01*
X37173Y65819D01*
X37243Y65836D01*
X37307Y65854D01*
X37354Y65865D01*
X37383Y65871D01*
X37395Y65877D01*
X37482Y65912D01*
X37564Y65953D01*
X37634Y65999D01*
X37698Y66040D01*
X37756Y66075D01*
X37797Y66104D01*
X37820Y66128D01*
X37832Y66133D01*
Y65393D01*
X37762Y65358D01*
X37686Y65335D01*
X37616Y65311D01*
X37552Y65294D01*
X37494Y65276D01*
X37447Y65265D01*
X37418Y65259D01*
X37407D01*
X37220Y65236D01*
X37132Y65230D01*
X37051Y65224D01*
X36981Y65218D01*
X36783D01*
X36695Y65224D01*
X36608Y65236D01*
X36532Y65241D01*
X36468Y65253D01*
X36421Y65259D01*
X36392Y65265D01*
X36380D01*
X36293Y65288D01*
X36211Y65311D01*
X36141Y65335D01*
X36083Y65364D01*
X36031Y65387D01*
X35990Y65410D01*
X35967Y65422D01*
X35961Y65428D01*
X35897Y65474D01*
X35838Y65527D01*
X35792Y65574D01*
X35751Y65626D01*
X35716Y65667D01*
X35693Y65702D01*
X35681Y65725D01*
X35675Y65731D01*
X35640Y65807D01*
X35617Y65883D01*
X35593Y65964D01*
X35582Y66034D01*
X35576Y66098D01*
X35570Y66151D01*
Y66186D01*
Y66192D01*
Y66198D01*
Y66273D01*
X35582Y66337D01*
X35588Y66401D01*
X35599Y66454D01*
X35611Y66495D01*
X35617Y66524D01*
X35628Y66547D01*
Y66553D01*
X35681Y66658D01*
X35710Y66705D01*
X35739Y66746D01*
X35763Y66775D01*
X35786Y66804D01*
X35797Y66815D01*
X35803Y66821D01*
X35891Y66903D01*
X35984Y66973D01*
X36019Y66996D01*
X36048Y67014D01*
X36071Y67025D01*
X36077Y67031D01*
X36200Y67101D01*
X36258Y67130D01*
X36316Y67159D01*
X36363Y67177D01*
X36398Y67194D01*
X36421Y67206D01*
X36433Y67212D01*
X36538Y67253D01*
X36579Y67270D01*
X36619Y67288D01*
X36649Y67305D01*
X36672Y67311D01*
X36689Y67323D01*
X36695D01*
X36771Y67364D01*
X36835Y67404D01*
X36858Y67416D01*
X36870Y67428D01*
X36882Y67439D01*
X36888D01*
X36940Y67486D01*
X36981Y67527D01*
X37004Y67556D01*
X37016Y67567D01*
X37039Y67620D01*
X37051Y67667D01*
X37057Y67702D01*
Y67707D01*
Y67713D01*
X37051Y67766D01*
X37039Y67807D01*
X37028Y67836D01*
X37022Y67847D01*
X36987Y67894D01*
X36952Y67929D01*
X36923Y67952D01*
X36911Y67958D01*
X36853Y67987D01*
X36794Y68011D01*
X36765Y68016D01*
X36748Y68022D01*
X36736Y68028D01*
X36730D01*
X36649Y68040D01*
X36579Y68051D01*
X36433D01*
X36369Y68046D01*
X36345Y68040D01*
X36328D01*
X36316Y68034D01*
X36310D01*
X36235Y68022D01*
X36165Y68011D01*
X36141Y68005D01*
X36118Y67999D01*
X36106Y67993D01*
X36101D01*
X36025Y67970D01*
X35961Y67946D01*
X35932Y67935D01*
X35914Y67923D01*
X35902Y67917D01*
X35897D01*
X35827Y67882D01*
X35768Y67853D01*
X35745Y67842D01*
X35728Y67830D01*
X35722Y67818D01*
X35716D01*
Y68512D01*
X35844Y68553D01*
X35908Y68570D01*
X35961Y68582D01*
X36013Y68594D01*
X36048Y68599D01*
X36071Y68605D01*
X36083D01*
X36159Y68617D01*
X36241Y68629D01*
X36316Y68634D01*
X36386D01*
X36450Y68640D01*
X36643D01*
X36730Y68629D01*
D02*
G37*
G36*
X158726Y105416D02*
X158903Y105396D01*
X159061Y105364D01*
X159205Y105331D01*
X159271Y105311D01*
X159323Y105291D01*
X159376Y105278D01*
X159415Y105265D01*
X159448Y105252D01*
X159474Y105239D01*
X159487Y105232D01*
X159494D01*
Y104406D01*
X159356Y104478D01*
X159231Y104531D01*
X159107Y104563D01*
X158995Y104589D01*
X158903Y104603D01*
X158831Y104616D01*
X158772D01*
X158687Y104609D01*
X158615Y104603D01*
X158556Y104589D01*
X158510Y104570D01*
X158470Y104550D01*
X158444Y104537D01*
X158431Y104531D01*
X158424Y104524D01*
X158385Y104491D01*
X158359Y104452D01*
X158333Y104412D01*
X158320Y104373D01*
X158313Y104340D01*
X158307Y104314D01*
Y104294D01*
Y104288D01*
X158313Y104229D01*
X158333Y104183D01*
X158352Y104137D01*
X158379Y104104D01*
X158411Y104071D01*
X158431Y104052D01*
X158451Y104039D01*
X158457Y104032D01*
X158523Y103999D01*
X158595Y103979D01*
X158674Y103960D01*
X158746Y103953D01*
X158818Y103947D01*
X158871Y103940D01*
X159238D01*
Y103127D01*
X158884D01*
X158772Y103120D01*
X158674Y103113D01*
X158589Y103094D01*
X158523Y103074D01*
X158470Y103054D01*
X158431Y103041D01*
X158405Y103028D01*
X158398Y103022D01*
X158339Y102982D01*
X158293Y102936D01*
X158267Y102891D01*
X158241Y102845D01*
X158228Y102805D01*
X158221Y102772D01*
Y102746D01*
Y102740D01*
X158228Y102681D01*
X158241Y102621D01*
X158267Y102576D01*
X158293Y102536D01*
X158320Y102510D01*
X158346Y102490D01*
X158359Y102477D01*
X158365Y102471D01*
X158424Y102438D01*
X158490Y102418D01*
X158556Y102399D01*
X158621Y102392D01*
X158680Y102385D01*
X158726Y102379D01*
X158772D01*
X158943Y102385D01*
X159015Y102399D01*
X159087Y102412D01*
X159140Y102418D01*
X159186Y102431D01*
X159212Y102438D01*
X159225D01*
X159304Y102464D01*
X159382Y102490D01*
X159448Y102517D01*
X159507Y102543D01*
X159553Y102562D01*
X159586Y102582D01*
X159612Y102595D01*
X159618Y102602D01*
Y101729D01*
X159546Y101703D01*
X159474Y101677D01*
X159395Y101657D01*
X159323Y101644D01*
X159264Y101631D01*
X159218Y101618D01*
X159186Y101611D01*
X159172D01*
X158976Y101585D01*
X158884Y101578D01*
X158805Y101572D01*
X158733Y101565D01*
X158634D01*
X158503Y101572D01*
X158379Y101578D01*
X158261Y101592D01*
X158156Y101611D01*
X158051Y101631D01*
X157959Y101657D01*
X157880Y101683D01*
X157801Y101716D01*
X157736Y101742D01*
X157677Y101769D01*
X157631Y101795D01*
X157591Y101815D01*
X157559Y101834D01*
X157539Y101848D01*
X157526Y101861D01*
X157519D01*
X157447Y101920D01*
X157388Y101979D01*
X157336Y102044D01*
X157290Y102116D01*
X157250Y102182D01*
X157224Y102254D01*
X157172Y102385D01*
X157145Y102510D01*
X157139Y102562D01*
X157132Y102608D01*
X157126Y102641D01*
Y102667D01*
Y102687D01*
Y102694D01*
X157132Y102818D01*
X157159Y102930D01*
X157198Y103028D01*
X157237Y103113D01*
X157276Y103179D01*
X157316Y103232D01*
X157342Y103258D01*
X157349Y103271D01*
X157434Y103350D01*
X157532Y103415D01*
X157631Y103468D01*
X157723Y103507D01*
X157808Y103533D01*
X157880Y103547D01*
X157900Y103553D01*
X157919Y103560D01*
X157939D01*
Y103573D01*
X157821Y103605D01*
X157710Y103651D01*
X157618Y103704D01*
X157545Y103756D01*
X157486Y103802D01*
X157440Y103842D01*
X157414Y103868D01*
X157408Y103881D01*
X157342Y103973D01*
X157296Y104071D01*
X157263Y104170D01*
X157244Y104262D01*
X157224Y104340D01*
X157218Y104406D01*
Y104432D01*
Y104452D01*
Y104458D01*
Y104465D01*
X157224Y104550D01*
X157231Y104622D01*
X157270Y104767D01*
X157329Y104885D01*
X157395Y104983D01*
X157460Y105062D01*
X157519Y105121D01*
X157559Y105154D01*
X157565Y105167D01*
X157572D01*
X157716Y105252D01*
X157873Y105318D01*
X158037Y105364D01*
X158188Y105390D01*
X158261Y105403D01*
X158326Y105410D01*
X158392Y105416D01*
X158438D01*
X158484Y105423D01*
X158543D01*
X158726Y105416D01*
D02*
G37*
G36*
X162853Y105364D02*
X162964Y105291D01*
X163069Y105226D01*
X163161Y105173D01*
X163246Y105134D01*
X163305Y105108D01*
X163345Y105088D01*
X163351Y105081D01*
X163358D01*
X163587Y105003D01*
X163699Y104970D01*
X163797Y104944D01*
X163883Y104924D01*
X163948Y104911D01*
X163974Y104904D01*
X163994Y104898D01*
X164007D01*
Y104071D01*
X163915Y104078D01*
X163837Y104091D01*
X163764Y104104D01*
X163699Y104117D01*
X163640Y104124D01*
X163600Y104137D01*
X163574Y104144D01*
X163568D01*
X163423Y104196D01*
X163358Y104222D01*
X163305Y104248D01*
X163253Y104275D01*
X163220Y104294D01*
X163194Y104307D01*
X163187Y104314D01*
Y101631D01*
X162078D01*
Y105442D01*
X162734D01*
X162853Y105364D01*
D02*
G37*
G36*
X182270Y101631D02*
X181227D01*
Y103192D01*
Y103317D01*
Y103435D01*
X181234Y103540D01*
Y103632D01*
X181240Y103710D01*
Y103770D01*
X181247Y103802D01*
Y103815D01*
X181234D01*
X181155Y103678D01*
X181109Y103612D01*
X181070Y103553D01*
X181037Y103507D01*
X181011Y103461D01*
X180991Y103435D01*
X180984Y103428D01*
X179666Y101631D01*
X178682D01*
Y105364D01*
X179725D01*
Y103691D01*
Y103592D01*
X179718Y103514D01*
Y103442D01*
X179712Y103389D01*
Y103350D01*
X179705Y103317D01*
Y103304D01*
Y103297D01*
X179718D01*
X179731Y103323D01*
X179745Y103350D01*
X179758Y103369D01*
X179764Y103376D01*
X179790Y103409D01*
X179810Y103442D01*
X179823Y103461D01*
X179830Y103468D01*
X179856Y103507D01*
X179876Y103540D01*
X179889Y103560D01*
X179895Y103566D01*
X179915Y103599D01*
X179935Y103632D01*
X179948Y103645D01*
X179955Y103651D01*
X181214Y105364D01*
X182270D01*
Y101631D01*
D02*
G37*
G36*
X191080D02*
X189821D01*
X188594Y105364D01*
X189768D01*
X190319Y103074D01*
X190339Y102982D01*
X190359Y102897D01*
X190372Y102825D01*
X190385Y102766D01*
X190391Y102713D01*
X190398Y102681D01*
X190404Y102654D01*
Y102648D01*
X190431D01*
X190437Y102707D01*
X190444Y102772D01*
X190470Y102904D01*
X190483Y102969D01*
X190490Y103015D01*
X190503Y103048D01*
Y103061D01*
X191074Y105364D01*
X192281D01*
X191080Y101631D01*
D02*
G37*
G36*
X174477Y105410D02*
X174680Y105383D01*
X174864Y105344D01*
X174943Y105318D01*
X175021Y105298D01*
X175087Y105272D01*
X175153Y105245D01*
X175205Y105226D01*
X175244Y105206D01*
X175284Y105193D01*
X175310Y105180D01*
X175323Y105167D01*
X175330D01*
X175494Y105062D01*
X175638Y104950D01*
X175763Y104832D01*
X175868Y104721D01*
X175946Y104616D01*
X175979Y104570D01*
X176005Y104537D01*
X176025Y104504D01*
X176038Y104478D01*
X176051Y104465D01*
Y104458D01*
X176137Y104281D01*
X176196Y104104D01*
X176242Y103927D01*
X176268Y103763D01*
X176281Y103684D01*
X176287Y103619D01*
X176294Y103560D01*
Y103507D01*
X176301Y103468D01*
Y103435D01*
Y103415D01*
Y103409D01*
X176294Y103212D01*
X176268Y103022D01*
X176228Y102858D01*
X176189Y102720D01*
X176169Y102654D01*
X176150Y102602D01*
X176130Y102549D01*
X176110Y102510D01*
X176097Y102477D01*
X176084Y102457D01*
X176077Y102444D01*
Y102438D01*
X175986Y102287D01*
X175874Y102162D01*
X175769Y102051D01*
X175658Y101959D01*
X175566Y101880D01*
X175487Y101834D01*
X175454Y101815D01*
X175435Y101802D01*
X175422Y101788D01*
X175415D01*
X175244Y101716D01*
X175074Y101657D01*
X174903Y101618D01*
X174739Y101592D01*
X174667Y101585D01*
X174601Y101578D01*
X174542Y101572D01*
X174490D01*
X174451Y101565D01*
X174392D01*
X174169Y101572D01*
X173965Y101592D01*
X173782Y101618D01*
X173703Y101631D01*
X173624Y101651D01*
X173558Y101664D01*
X173493Y101677D01*
X173440Y101690D01*
X173401Y101703D01*
X173362Y101716D01*
X173335Y101723D01*
X173322Y101729D01*
X173316D01*
Y102733D01*
X173473Y102661D01*
X173624Y102615D01*
X173762Y102576D01*
X173887Y102549D01*
X173991Y102536D01*
X174037Y102530D01*
X174070D01*
X174103Y102523D01*
X174142D01*
X174300Y102536D01*
X174444Y102562D01*
X174562Y102602D01*
X174661Y102654D01*
X174746Y102700D01*
X174805Y102740D01*
X174838Y102766D01*
X174851Y102779D01*
X174936Y102884D01*
X175002Y102996D01*
X175048Y103113D01*
X175080Y103232D01*
X175100Y103330D01*
X175107Y103376D01*
Y103415D01*
X175113Y103442D01*
Y103468D01*
Y103481D01*
Y103487D01*
X175100Y103645D01*
X175074Y103789D01*
X175028Y103907D01*
X174982Y104012D01*
X174936Y104091D01*
X174890Y104150D01*
X174864Y104183D01*
X174851Y104196D01*
X174746Y104288D01*
X174628Y104353D01*
X174510Y104399D01*
X174392Y104432D01*
X174287Y104452D01*
X174241Y104458D01*
X174208D01*
X174175Y104465D01*
X174129D01*
X173965Y104458D01*
X173893Y104452D01*
X173827Y104439D01*
X173768Y104432D01*
X173729Y104419D01*
X173696Y104412D01*
X173690D01*
X173611Y104393D01*
X173539Y104367D01*
X173473Y104347D01*
X173421Y104321D01*
X173375Y104301D01*
X173342Y104281D01*
X173322Y104275D01*
X173316Y104268D01*
Y105305D01*
X173486Y105344D01*
X173657Y105370D01*
X173814Y105396D01*
X173959Y105410D01*
X174018Y105416D01*
X174129D01*
X174169Y105423D01*
X174254D01*
X174477Y105410D01*
D02*
G37*
G36*
X205867Y104485D02*
X204823D01*
Y101631D01*
X203695D01*
Y104485D01*
X202639D01*
Y105364D01*
X205867D01*
Y104485D01*
D02*
G37*
G36*
X202186Y101631D02*
X200612D01*
X200402Y101644D01*
X200212Y101670D01*
X200035Y101703D01*
X199956Y101729D01*
X199884Y101749D01*
X199825Y101769D01*
X199766Y101795D01*
X199713Y101815D01*
X199674Y101828D01*
X199641Y101848D01*
X199615Y101854D01*
X199602Y101867D01*
X199595D01*
X199438Y101965D01*
X199300Y102070D01*
X199182Y102182D01*
X199083Y102294D01*
X199011Y102385D01*
X198959Y102464D01*
X198939Y102497D01*
X198926Y102517D01*
X198913Y102530D01*
Y102536D01*
X198834Y102707D01*
X198775Y102877D01*
X198729Y103048D01*
X198703Y103205D01*
X198690Y103271D01*
X198683Y103337D01*
X198677Y103396D01*
Y103448D01*
X198670Y103487D01*
Y103514D01*
Y103533D01*
Y103540D01*
X198677Y103704D01*
X198690Y103861D01*
X198716Y104006D01*
X198755Y104144D01*
X198801Y104268D01*
X198854Y104386D01*
X198913Y104491D01*
X198978Y104596D01*
X199051Y104688D01*
X199129Y104773D01*
X199208Y104845D01*
X199293Y104918D01*
X199385Y104983D01*
X199470Y105042D01*
X199654Y105134D01*
X199844Y105213D01*
X200022Y105265D01*
X200185Y105311D01*
X200336Y105337D01*
X200402Y105344D01*
X200461Y105350D01*
X200514Y105357D01*
X200559D01*
X200599Y105364D01*
X202186D01*
Y101631D01*
D02*
G37*
G36*
X196263D02*
X195056D01*
X194878Y102320D01*
X193763D01*
X193599Y101631D01*
X192379D01*
X193593Y105364D01*
X194983D01*
X196263Y101631D01*
D02*
G37*
G36*
X188200D02*
X187079D01*
Y105364D01*
X188200D01*
Y101631D01*
D02*
G37*
G36*
X177947D02*
X176825D01*
Y105364D01*
X177947D01*
Y101631D01*
D02*
G37*
G36*
X167484D02*
X166362D01*
Y102943D01*
X166323D01*
X166270Y102936D01*
X166218Y102923D01*
X166165Y102897D01*
X166126Y102877D01*
X166093Y102851D01*
X166060Y102825D01*
X166047Y102812D01*
X166041Y102805D01*
X165995Y102753D01*
X165955Y102687D01*
X165883Y102569D01*
X165864Y102517D01*
X165844Y102471D01*
X165837Y102444D01*
X165831Y102431D01*
X165555Y101631D01*
X164283D01*
X164650Y102576D01*
X164696Y102694D01*
X164748Y102792D01*
X164794Y102877D01*
X164840Y102943D01*
X164873Y102996D01*
X164906Y103035D01*
X164926Y103061D01*
X164932Y103068D01*
X164991Y103127D01*
X165057Y103173D01*
X165122Y103212D01*
X165188Y103245D01*
X165240Y103271D01*
X165286Y103291D01*
X165313Y103304D01*
X165326D01*
Y103310D01*
X165175Y103363D01*
X165044Y103422D01*
X164932Y103481D01*
X164847Y103540D01*
X164775Y103599D01*
X164722Y103645D01*
X164696Y103671D01*
X164683Y103684D01*
X164611Y103789D01*
X164552Y103894D01*
X164512Y104006D01*
X164486Y104111D01*
X164473Y104196D01*
X164460Y104268D01*
Y104294D01*
Y104314D01*
Y104327D01*
Y104334D01*
X164466Y104426D01*
X164473Y104511D01*
X164492Y104596D01*
X164519Y104668D01*
X164578Y104799D01*
X164643Y104911D01*
X164716Y104996D01*
X164775Y105055D01*
X164801Y105075D01*
X164821Y105088D01*
X164827Y105101D01*
X164834D01*
X164906Y105147D01*
X164991Y105186D01*
X165175Y105252D01*
X165365Y105298D01*
X165555Y105331D01*
X165640Y105344D01*
X165726Y105350D01*
X165798Y105357D01*
X165864D01*
X165923Y105364D01*
X167484D01*
Y101631D01*
D02*
G37*
G36*
X184842Y105410D02*
X185032Y105383D01*
X185196Y105344D01*
X185347Y105298D01*
X185412Y105272D01*
X185465Y105252D01*
X185517Y105232D01*
X185557Y105213D01*
X185590Y105200D01*
X185616Y105186D01*
X185629Y105173D01*
X185635D01*
X185793Y105068D01*
X185924Y104957D01*
X186042Y104839D01*
X186141Y104727D01*
X186219Y104622D01*
X186246Y104576D01*
X186272Y104544D01*
X186291Y104511D01*
X186304Y104485D01*
X186318Y104472D01*
Y104465D01*
X186396Y104294D01*
X186455Y104117D01*
X186495Y103940D01*
X186521Y103783D01*
X186534Y103710D01*
X186541Y103645D01*
X186547Y103586D01*
Y103540D01*
X186554Y103501D01*
Y103468D01*
Y103448D01*
Y103442D01*
X186541Y103245D01*
X186514Y103061D01*
X186482Y102891D01*
X186436Y102746D01*
X186416Y102687D01*
X186390Y102628D01*
X186370Y102582D01*
X186357Y102543D01*
X186337Y102510D01*
X186331Y102484D01*
X186318Y102471D01*
Y102464D01*
X186219Y102313D01*
X186108Y102182D01*
X185996Y102070D01*
X185891Y101972D01*
X185793Y101900D01*
X185721Y101848D01*
X185688Y101828D01*
X185668Y101815D01*
X185655Y101802D01*
X185649D01*
X185485Y101723D01*
X185314Y101664D01*
X185157Y101624D01*
X185006Y101598D01*
X184940Y101585D01*
X184881Y101578D01*
X184828Y101572D01*
X184776D01*
X184743Y101565D01*
X184691D01*
X184494Y101578D01*
X184310Y101605D01*
X184146Y101644D01*
X184002Y101690D01*
X183943Y101710D01*
X183884Y101729D01*
X183838Y101749D01*
X183799Y101769D01*
X183766Y101788D01*
X183740Y101795D01*
X183727Y101808D01*
X183720D01*
X183563Y101907D01*
X183425Y102018D01*
X183313Y102136D01*
X183215Y102241D01*
X183136Y102346D01*
X183110Y102385D01*
X183084Y102425D01*
X183064Y102457D01*
X183051Y102477D01*
X183038Y102490D01*
Y102497D01*
X182959Y102667D01*
X182900Y102845D01*
X182854Y103009D01*
X182828Y103166D01*
X182815Y103238D01*
X182808Y103304D01*
X182801Y103356D01*
Y103409D01*
X182795Y103448D01*
Y103474D01*
Y103494D01*
Y103501D01*
X182808Y103704D01*
X182834Y103894D01*
X182867Y104065D01*
X182893Y104144D01*
X182913Y104216D01*
X182933Y104281D01*
X182959Y104334D01*
X182979Y104386D01*
X182992Y104426D01*
X183011Y104458D01*
X183018Y104485D01*
X183031Y104498D01*
Y104504D01*
X183123Y104662D01*
X183228Y104793D01*
X183339Y104911D01*
X183444Y105009D01*
X183543Y105081D01*
X183615Y105134D01*
X183648Y105154D01*
X183667Y105167D01*
X183680Y105180D01*
X183687D01*
X183851Y105259D01*
X184015Y105318D01*
X184172Y105364D01*
X184317Y105390D01*
X184389Y105403D01*
X184448Y105410D01*
X184501Y105416D01*
X184546D01*
X184586Y105423D01*
X184638D01*
X184842Y105410D01*
D02*
G37*
G36*
X171505Y105416D02*
X171623Y105410D01*
X171735Y105390D01*
X171846Y105370D01*
X171938Y105344D01*
X172030Y105318D01*
X172115Y105291D01*
X172187Y105259D01*
X172260Y105226D01*
X172312Y105200D01*
X172364Y105173D01*
X172404Y105147D01*
X172437Y105127D01*
X172463Y105108D01*
X172476Y105101D01*
X172483Y105095D01*
X172555Y105029D01*
X172614Y104963D01*
X172673Y104898D01*
X172719Y104826D01*
X172758Y104753D01*
X172791Y104681D01*
X172837Y104544D01*
X172870Y104419D01*
X172876Y104367D01*
X172883Y104321D01*
X172889Y104281D01*
Y104255D01*
Y104235D01*
Y104229D01*
X172876Y104091D01*
X172850Y103960D01*
X172804Y103842D01*
X172752Y103730D01*
X172679Y103632D01*
X172607Y103540D01*
X172529Y103455D01*
X172443Y103383D01*
X172358Y103317D01*
X172279Y103264D01*
X172207Y103218D01*
X172135Y103179D01*
X172082Y103153D01*
X172037Y103133D01*
X172004Y103120D01*
X171997Y103113D01*
X171899Y103074D01*
X171820Y103041D01*
X171755Y103015D01*
X171702Y102996D01*
X171663Y102976D01*
X171636Y102963D01*
X171623Y102950D01*
X171617D01*
X171545Y102904D01*
X171499Y102864D01*
X171466Y102831D01*
X171459Y102825D01*
Y102818D01*
X171426Y102766D01*
X171413Y102713D01*
X171407Y102674D01*
Y102667D01*
Y102661D01*
X171413Y102615D01*
X171420Y102576D01*
X171459Y102517D01*
X171492Y102484D01*
X171505Y102471D01*
X171512D01*
X171551Y102451D01*
X171597Y102431D01*
X171689Y102412D01*
X171728D01*
X171761Y102405D01*
X171794D01*
X171886Y102412D01*
X171984Y102418D01*
X172069Y102438D01*
X172155Y102457D01*
X172220Y102471D01*
X172279Y102490D01*
X172312Y102497D01*
X172319Y102503D01*
X172325D01*
X172430Y102543D01*
X172522Y102595D01*
X172614Y102641D01*
X172686Y102687D01*
X172752Y102726D01*
X172798Y102759D01*
X172824Y102779D01*
X172837Y102786D01*
Y101762D01*
X172653Y101697D01*
X172463Y101651D01*
X172286Y101611D01*
X172122Y101592D01*
X172043Y101585D01*
X171977Y101578D01*
X171918Y101572D01*
X171866D01*
X171827Y101565D01*
X171768D01*
X171584Y101572D01*
X171420Y101585D01*
X171276Y101605D01*
X171151Y101631D01*
X171046Y101657D01*
X171007Y101664D01*
X170974Y101677D01*
X170941Y101683D01*
X170921Y101690D01*
X170915Y101697D01*
X170908D01*
X170784Y101756D01*
X170666Y101821D01*
X170574Y101887D01*
X170495Y101952D01*
X170429Y102018D01*
X170390Y102064D01*
X170357Y102097D01*
X170351Y102110D01*
X170285Y102215D01*
X170232Y102326D01*
X170200Y102438D01*
X170174Y102536D01*
X170160Y102628D01*
X170147Y102694D01*
Y102720D01*
Y102746D01*
Y102753D01*
Y102759D01*
X170160Y102897D01*
X170187Y103022D01*
X170226Y103133D01*
X170265Y103232D01*
X170311Y103310D01*
X170351Y103369D01*
X170377Y103402D01*
X170390Y103415D01*
X170436Y103468D01*
X170495Y103520D01*
X170620Y103619D01*
X170757Y103704D01*
X170888Y103783D01*
X171013Y103842D01*
X171066Y103868D01*
X171118Y103894D01*
X171158Y103907D01*
X171184Y103920D01*
X171203Y103934D01*
X171210D01*
X171308Y103973D01*
X171394Y104012D01*
X171459Y104045D01*
X171505Y104078D01*
X171545Y104097D01*
X171571Y104117D01*
X171584Y104124D01*
X171590Y104130D01*
X171623Y104163D01*
X171643Y104196D01*
X171669Y104255D01*
X171676Y104281D01*
X171682Y104301D01*
Y104314D01*
Y104321D01*
X171676Y104367D01*
X171663Y104406D01*
X171623Y104465D01*
X171590Y104504D01*
X171577Y104517D01*
X171571D01*
X171525Y104544D01*
X171479Y104557D01*
X171380Y104583D01*
X171335D01*
X171302Y104589D01*
X171269D01*
X171098Y104576D01*
X170934Y104550D01*
X170777Y104504D01*
X170639Y104458D01*
X170574Y104432D01*
X170515Y104412D01*
X170469Y104386D01*
X170423Y104367D01*
X170390Y104353D01*
X170364Y104340D01*
X170351Y104327D01*
X170344D01*
Y105278D01*
X170429Y105298D01*
X170508Y105318D01*
X170574Y105337D01*
X170626Y105344D01*
X170666Y105357D01*
X170698D01*
X170718Y105364D01*
X170724D01*
X170823Y105383D01*
X170921Y105396D01*
X170961D01*
X170993Y105403D01*
X171020D01*
X171144Y105416D01*
X171203D01*
X171263Y105423D01*
X171380D01*
X171505Y105416D01*
D02*
G37*
G36*
X160884Y102602D02*
X160976Y102589D01*
X161055Y102562D01*
X161121Y102536D01*
X161167Y102510D01*
X161206Y102484D01*
X161232Y102471D01*
X161239Y102464D01*
X161291Y102405D01*
X161331Y102346D01*
X161363Y102280D01*
X161383Y102221D01*
X161396Y102169D01*
X161403Y102129D01*
Y102103D01*
Y102090D01*
X161396Y102012D01*
X161377Y101939D01*
X161350Y101874D01*
X161318Y101821D01*
X161291Y101775D01*
X161265Y101742D01*
X161245Y101723D01*
X161239Y101716D01*
X161173Y101664D01*
X161101Y101631D01*
X161022Y101605D01*
X160957Y101585D01*
X160891Y101572D01*
X160845Y101565D01*
X160799D01*
X160694Y101572D01*
X160602Y101585D01*
X160524Y101611D01*
X160458Y101637D01*
X160406Y101664D01*
X160373Y101690D01*
X160347Y101703D01*
X160340Y101710D01*
X160281Y101769D01*
X160242Y101828D01*
X160209Y101893D01*
X160189Y101952D01*
X160176Y102005D01*
X160169Y102051D01*
Y102077D01*
Y102090D01*
X160176Y102175D01*
X160196Y102248D01*
X160222Y102307D01*
X160255Y102366D01*
X160288Y102405D01*
X160314Y102438D01*
X160334Y102457D01*
X160340Y102464D01*
X160406Y102510D01*
X160484Y102549D01*
X160556Y102576D01*
X160629Y102589D01*
X160688Y102602D01*
X160740Y102608D01*
X160786D01*
X160884Y102602D01*
D02*
G37*
G36*
X198513Y100857D02*
X196302D01*
Y101165D01*
X198513D01*
Y100857D01*
D02*
G37*
G36*
X170062D02*
X167851D01*
Y101165D01*
X170062D01*
Y100857D01*
D02*
G37*
G36*
X11584Y60760D02*
X11729Y60743D01*
X11863Y60720D01*
X11992Y60690D01*
X12114Y60650D01*
X12225Y60609D01*
X12324Y60562D01*
X12417Y60521D01*
X12499Y60475D01*
X12569Y60428D01*
X12627Y60387D01*
X12680Y60347D01*
X12720Y60317D01*
X12750Y60294D01*
X12767Y60277D01*
X12773Y60271D01*
X12860Y60177D01*
X12936Y60078D01*
X13006Y59973D01*
X13065Y59868D01*
X13111Y59758D01*
X13152Y59653D01*
X13187Y59548D01*
X13210Y59455D01*
X13234Y59361D01*
X13245Y59274D01*
X13257Y59198D01*
X13269Y59128D01*
Y59075D01*
X13274Y59035D01*
Y59011D01*
Y59000D01*
X13269Y58860D01*
X13257Y58726D01*
X13234Y58597D01*
X13204Y58481D01*
X13169Y58370D01*
X13129Y58271D01*
X13088Y58178D01*
X13041Y58096D01*
X13000Y58026D01*
X12959Y57962D01*
X12919Y57910D01*
X12884Y57863D01*
X12855Y57828D01*
X12831Y57805D01*
X12820Y57787D01*
X12814Y57781D01*
X12726Y57705D01*
X12627Y57635D01*
X12528Y57577D01*
X12423Y57531D01*
X12318Y57484D01*
X12213Y57449D01*
X12108Y57420D01*
X12009Y57397D01*
X11916Y57379D01*
X11829Y57367D01*
X11753Y57356D01*
X11689Y57350D01*
X11630D01*
X11590Y57344D01*
X11554D01*
X11420Y57350D01*
X11292Y57356D01*
X11176Y57367D01*
X11059Y57385D01*
X10954Y57408D01*
X10855Y57432D01*
X10762Y57455D01*
X10680Y57484D01*
X10604Y57507D01*
X10540Y57531D01*
X10482Y57554D01*
X10435Y57577D01*
X10394Y57595D01*
X10371Y57606D01*
X10353Y57618D01*
X10348D01*
Y59280D01*
X11759D01*
Y58685D01*
X11094D01*
Y58038D01*
X11158Y58015D01*
X11228Y57997D01*
X11298Y57980D01*
X11368Y57974D01*
X11426Y57968D01*
X11473Y57962D01*
X11519D01*
X11601Y57968D01*
X11677Y57974D01*
X11817Y58009D01*
X11939Y58049D01*
X12038Y58102D01*
X12120Y58154D01*
X12178Y58201D01*
X12196Y58218D01*
X12213Y58230D01*
X12219Y58236D01*
X12225Y58242D01*
X12272Y58294D01*
X12312Y58358D01*
X12376Y58487D01*
X12423Y58615D01*
X12452Y58743D01*
X12476Y58860D01*
X12482Y58907D01*
Y58953D01*
X12487Y58988D01*
Y59011D01*
Y59029D01*
Y59035D01*
X12482Y59128D01*
X12476Y59215D01*
X12441Y59373D01*
X12394Y59507D01*
X12371Y59571D01*
X12342Y59624D01*
X12312Y59676D01*
X12289Y59717D01*
X12266Y59752D01*
X12242Y59787D01*
X12225Y59810D01*
X12207Y59828D01*
X12202Y59833D01*
X12196Y59839D01*
X12138Y59892D01*
X12079Y59938D01*
X12015Y59979D01*
X11957Y60014D01*
X11829Y60067D01*
X11706Y60107D01*
X11601Y60125D01*
X11554Y60131D01*
X11514Y60137D01*
X11485Y60142D01*
X11438D01*
X11240Y60131D01*
X11059Y60107D01*
X10977Y60090D01*
X10896Y60072D01*
X10826Y60049D01*
X10762Y60032D01*
X10703Y60008D01*
X10651Y59985D01*
X10604Y59967D01*
X10569Y59950D01*
X10540Y59938D01*
X10517Y59927D01*
X10505Y59915D01*
X10499D01*
Y60620D01*
X10657Y60667D01*
X10814Y60702D01*
X10971Y60731D01*
X11117Y60749D01*
X11181Y60755D01*
X11246Y60760D01*
X11298D01*
X11345Y60766D01*
X11432D01*
X11584Y60760D01*
D02*
G37*
G36*
X34185Y76508D02*
X34285Y76503D01*
X34465Y76473D01*
X34634Y76427D01*
X34710Y76403D01*
X34774Y76374D01*
X34838Y76351D01*
X34897Y76322D01*
X34943Y76299D01*
X34984Y76281D01*
X35019Y76258D01*
X35043Y76246D01*
X35054Y76240D01*
X35060Y76234D01*
Y75587D01*
X34984Y75646D01*
X34914Y75704D01*
X34838Y75745D01*
X34769Y75785D01*
X34699Y75820D01*
X34628Y75850D01*
X34506Y75890D01*
X34448Y75902D01*
X34401Y75914D01*
X34354Y75920D01*
X34314Y75925D01*
X34285Y75931D01*
X34244D01*
X34156Y75925D01*
X34080Y75914D01*
X34016Y75896D01*
X33964Y75879D01*
X33929Y75855D01*
X33900Y75838D01*
X33882Y75826D01*
X33876Y75820D01*
X33836Y75774D01*
X33806Y75721D01*
X33783Y75669D01*
X33771Y75616D01*
X33760Y75570D01*
X33754Y75535D01*
Y75511D01*
Y75500D01*
X33760Y75418D01*
X33771Y75354D01*
X33783Y75325D01*
X33789Y75307D01*
X33795Y75296D01*
Y75290D01*
X33824Y75220D01*
X33865Y75162D01*
X33882Y75138D01*
X33894Y75121D01*
X33900Y75109D01*
X33906Y75103D01*
X33964Y75033D01*
X34028Y74975D01*
X34051Y74952D01*
X34075Y74934D01*
X34086Y74923D01*
X34092Y74917D01*
X34174Y74847D01*
X34255Y74783D01*
X34290Y74759D01*
X34319Y74736D01*
X34337Y74725D01*
X34343Y74719D01*
X34448Y74643D01*
X34500Y74602D01*
X34541Y74567D01*
X34582Y74538D01*
X34611Y74515D01*
X34634Y74497D01*
X34640Y74491D01*
X34745Y74398D01*
X34798Y74345D01*
X34838Y74305D01*
X34873Y74264D01*
X34897Y74235D01*
X34914Y74211D01*
X34920Y74206D01*
X35008Y74083D01*
X35043Y74025D01*
X35077Y73966D01*
X35101Y73920D01*
X35118Y73879D01*
X35130Y73856D01*
X35136Y73844D01*
X35165Y73768D01*
X35188Y73693D01*
X35200Y73611D01*
X35212Y73541D01*
X35217Y73483D01*
X35223Y73430D01*
Y73401D01*
Y73395D01*
Y73389D01*
Y73145D01*
X33014D01*
Y73745D01*
X34419D01*
X34413Y73792D01*
X34395Y73838D01*
X34384Y73867D01*
X34378Y73873D01*
Y73879D01*
X34337Y73937D01*
X34296Y73984D01*
X34267Y74019D01*
X34261Y74025D01*
X34255Y74031D01*
X34191Y74089D01*
X34133Y74136D01*
X34104Y74153D01*
X34086Y74171D01*
X34075Y74176D01*
X34069Y74182D01*
X33993Y74241D01*
X33923Y74287D01*
X33894Y74310D01*
X33871Y74328D01*
X33859Y74334D01*
X33853Y74340D01*
X33737Y74421D01*
X33684Y74462D01*
X33632Y74497D01*
X33597Y74526D01*
X33562Y74550D01*
X33544Y74567D01*
X33538Y74573D01*
X33433Y74666D01*
X33387Y74713D01*
X33346Y74754D01*
X33317Y74789D01*
X33288Y74818D01*
X33276Y74835D01*
X33270Y74841D01*
X33194Y74952D01*
X33159Y75004D01*
X33130Y75057D01*
X33113Y75098D01*
X33095Y75133D01*
X33089Y75156D01*
X33084Y75162D01*
X33060Y75232D01*
X33043Y75302D01*
X33031Y75372D01*
X33020Y75436D01*
Y75488D01*
X33014Y75529D01*
Y75558D01*
Y75570D01*
X33020Y75651D01*
X33025Y75721D01*
X33037Y75785D01*
X33049Y75844D01*
X33066Y75896D01*
X33078Y75931D01*
X33084Y75955D01*
X33089Y75960D01*
X33119Y76025D01*
X33154Y76083D01*
X33189Y76130D01*
X33218Y76176D01*
X33253Y76211D01*
X33276Y76234D01*
X33294Y76252D01*
X33299Y76258D01*
X33352Y76299D01*
X33410Y76339D01*
X33463Y76368D01*
X33521Y76398D01*
X33568Y76415D01*
X33602Y76433D01*
X33626Y76444D01*
X33637D01*
X33713Y76468D01*
X33789Y76485D01*
X33865Y76497D01*
X33935Y76508D01*
X33999D01*
X34045Y76514D01*
X34086D01*
X34185Y76508D01*
D02*
G37*
G36*
X36739Y76503D02*
X36826Y76497D01*
X36902Y76485D01*
X36966Y76473D01*
X37013Y76468D01*
X37042Y76456D01*
X37054D01*
X37141Y76433D01*
X37217Y76403D01*
X37287Y76374D01*
X37345Y76345D01*
X37398Y76316D01*
X37433Y76293D01*
X37462Y76281D01*
X37468Y76275D01*
X37532Y76229D01*
X37584Y76176D01*
X37631Y76130D01*
X37672Y76083D01*
X37707Y76036D01*
X37730Y76001D01*
X37742Y75978D01*
X37748Y75972D01*
X37783Y75902D01*
X37806Y75826D01*
X37829Y75750D01*
X37841Y75681D01*
X37847Y75622D01*
X37852Y75570D01*
Y75541D01*
Y75535D01*
Y75529D01*
X37847Y75407D01*
X37823Y75302D01*
X37794Y75203D01*
X37759Y75121D01*
X37724Y75057D01*
X37695Y75004D01*
X37672Y74975D01*
X37666Y74963D01*
X37584Y74882D01*
X37491Y74806D01*
X37398Y74736D01*
X37304Y74678D01*
X37217Y74631D01*
X37147Y74596D01*
X37118Y74585D01*
X37100Y74573D01*
X37089Y74567D01*
X37083D01*
X36972Y74520D01*
X36926Y74503D01*
X36885Y74480D01*
X36850Y74468D01*
X36826Y74456D01*
X36809Y74445D01*
X36803D01*
X36710Y74404D01*
X36675Y74380D01*
X36640Y74363D01*
X36611Y74345D01*
X36593Y74334D01*
X36582Y74328D01*
X36576Y74322D01*
X36512Y74270D01*
X36465Y74223D01*
X36436Y74188D01*
X36424Y74182D01*
Y74176D01*
X36389Y74118D01*
X36372Y74066D01*
X36366Y74042D01*
Y74025D01*
Y74013D01*
Y74007D01*
X36372Y73955D01*
X36383Y73914D01*
X36395Y73885D01*
X36401Y73879D01*
Y73873D01*
X36430Y73827D01*
X36465Y73792D01*
X36494Y73768D01*
X36500Y73763D01*
X36506D01*
X36564Y73733D01*
X36617Y73710D01*
X36646Y73704D01*
X36663Y73698D01*
X36675Y73693D01*
X36681D01*
X36762Y73681D01*
X36844Y73675D01*
X36873Y73669D01*
X36926D01*
X37013Y73675D01*
X37100Y73681D01*
X37182Y73693D01*
X37252Y73710D01*
X37316Y73728D01*
X37363Y73739D01*
X37392Y73745D01*
X37404Y73751D01*
X37491Y73786D01*
X37573Y73827D01*
X37643Y73873D01*
X37707Y73914D01*
X37765Y73949D01*
X37806Y73978D01*
X37829Y74001D01*
X37841Y74007D01*
Y73267D01*
X37771Y73232D01*
X37695Y73209D01*
X37625Y73185D01*
X37561Y73168D01*
X37503Y73150D01*
X37456Y73139D01*
X37427Y73133D01*
X37415D01*
X37229Y73110D01*
X37141Y73104D01*
X37060Y73098D01*
X36990Y73092D01*
X36792D01*
X36704Y73098D01*
X36617Y73110D01*
X36541Y73115D01*
X36477Y73127D01*
X36430Y73133D01*
X36401Y73139D01*
X36389D01*
X36302Y73162D01*
X36220Y73185D01*
X36150Y73209D01*
X36092Y73238D01*
X36039Y73261D01*
X35999Y73284D01*
X35975Y73296D01*
X35969Y73302D01*
X35905Y73349D01*
X35847Y73401D01*
X35800Y73448D01*
X35760Y73500D01*
X35725Y73541D01*
X35701Y73576D01*
X35690Y73599D01*
X35684Y73605D01*
X35649Y73681D01*
X35625Y73757D01*
X35602Y73838D01*
X35590Y73908D01*
X35585Y73972D01*
X35579Y74025D01*
Y74060D01*
Y74066D01*
Y74072D01*
Y74147D01*
X35590Y74211D01*
X35596Y74275D01*
X35608Y74328D01*
X35620Y74369D01*
X35625Y74398D01*
X35637Y74421D01*
Y74427D01*
X35690Y74532D01*
X35719Y74579D01*
X35748Y74620D01*
X35771Y74649D01*
X35794Y74678D01*
X35806Y74690D01*
X35812Y74695D01*
X35899Y74777D01*
X35993Y74847D01*
X36028Y74870D01*
X36057Y74888D01*
X36080Y74899D01*
X36086Y74905D01*
X36209Y74975D01*
X36267Y75004D01*
X36325Y75033D01*
X36372Y75051D01*
X36407Y75068D01*
X36430Y75080D01*
X36442Y75086D01*
X36547Y75127D01*
X36587Y75144D01*
X36628Y75162D01*
X36657Y75179D01*
X36681Y75185D01*
X36698Y75197D01*
X36704D01*
X36780Y75238D01*
X36844Y75278D01*
X36867Y75290D01*
X36879Y75302D01*
X36891Y75313D01*
X36896D01*
X36949Y75360D01*
X36990Y75401D01*
X37013Y75430D01*
X37025Y75441D01*
X37048Y75494D01*
X37060Y75541D01*
X37066Y75576D01*
Y75582D01*
Y75587D01*
X37060Y75640D01*
X37048Y75681D01*
X37036Y75710D01*
X37031Y75721D01*
X36996Y75768D01*
X36961Y75803D01*
X36931Y75826D01*
X36920Y75832D01*
X36861Y75861D01*
X36803Y75885D01*
X36774Y75890D01*
X36757Y75896D01*
X36745Y75902D01*
X36739D01*
X36657Y75914D01*
X36587Y75925D01*
X36442D01*
X36378Y75920D01*
X36354Y75914D01*
X36337D01*
X36325Y75908D01*
X36319D01*
X36243Y75896D01*
X36173Y75885D01*
X36150Y75879D01*
X36127Y75873D01*
X36115Y75867D01*
X36109D01*
X36034Y75844D01*
X35969Y75820D01*
X35940Y75809D01*
X35923Y75797D01*
X35911Y75791D01*
X35905D01*
X35835Y75756D01*
X35777Y75727D01*
X35754Y75716D01*
X35736Y75704D01*
X35730Y75692D01*
X35725D01*
Y76386D01*
X35853Y76427D01*
X35917Y76444D01*
X35969Y76456D01*
X36022Y76468D01*
X36057Y76473D01*
X36080Y76479D01*
X36092D01*
X36168Y76491D01*
X36249Y76503D01*
X36325Y76508D01*
X36395D01*
X36459Y76514D01*
X36652D01*
X36739Y76503D01*
D02*
G37*
G36*
X11584Y68634D02*
X11729Y68617D01*
X11863Y68594D01*
X11992Y68564D01*
X12114Y68524D01*
X12225Y68483D01*
X12324Y68436D01*
X12417Y68395D01*
X12499Y68349D01*
X12569Y68302D01*
X12627Y68261D01*
X12680Y68221D01*
X12720Y68191D01*
X12750Y68168D01*
X12767Y68151D01*
X12773Y68145D01*
X12860Y68051D01*
X12936Y67952D01*
X13006Y67847D01*
X13065Y67742D01*
X13111Y67632D01*
X13152Y67527D01*
X13187Y67422D01*
X13210Y67329D01*
X13234Y67235D01*
X13245Y67148D01*
X13257Y67072D01*
X13269Y67002D01*
Y66949D01*
X13274Y66909D01*
Y66885D01*
Y66874D01*
X13269Y66734D01*
X13257Y66600D01*
X13234Y66471D01*
X13204Y66355D01*
X13169Y66244D01*
X13129Y66145D01*
X13088Y66052D01*
X13041Y65970D01*
X13000Y65900D01*
X12959Y65836D01*
X12919Y65784D01*
X12884Y65737D01*
X12855Y65702D01*
X12831Y65679D01*
X12820Y65661D01*
X12814Y65655D01*
X12726Y65579D01*
X12627Y65509D01*
X12528Y65451D01*
X12423Y65405D01*
X12318Y65358D01*
X12213Y65323D01*
X12108Y65294D01*
X12009Y65271D01*
X11916Y65253D01*
X11829Y65241D01*
X11753Y65230D01*
X11689Y65224D01*
X11630D01*
X11590Y65218D01*
X11554D01*
X11420Y65224D01*
X11292Y65230D01*
X11176Y65241D01*
X11059Y65259D01*
X10954Y65282D01*
X10855Y65306D01*
X10762Y65329D01*
X10680Y65358D01*
X10604Y65381D01*
X10540Y65405D01*
X10482Y65428D01*
X10435Y65451D01*
X10394Y65469D01*
X10371Y65480D01*
X10353Y65492D01*
X10348D01*
Y67154D01*
X11759D01*
Y66559D01*
X11094D01*
Y65912D01*
X11158Y65889D01*
X11228Y65871D01*
X11298Y65854D01*
X11368Y65848D01*
X11426Y65842D01*
X11473Y65836D01*
X11519D01*
X11601Y65842D01*
X11677Y65848D01*
X11817Y65883D01*
X11939Y65924D01*
X12038Y65976D01*
X12120Y66028D01*
X12178Y66075D01*
X12196Y66092D01*
X12213Y66104D01*
X12219Y66110D01*
X12225Y66116D01*
X12272Y66168D01*
X12312Y66232D01*
X12376Y66361D01*
X12423Y66489D01*
X12452Y66617D01*
X12476Y66734D01*
X12482Y66781D01*
Y66827D01*
X12487Y66862D01*
Y66885D01*
Y66903D01*
Y66909D01*
X12482Y67002D01*
X12476Y67089D01*
X12441Y67247D01*
X12394Y67381D01*
X12371Y67445D01*
X12342Y67498D01*
X12312Y67550D01*
X12289Y67591D01*
X12266Y67626D01*
X12242Y67661D01*
X12225Y67684D01*
X12207Y67702D01*
X12202Y67707D01*
X12196Y67713D01*
X12138Y67766D01*
X12079Y67812D01*
X12015Y67853D01*
X11957Y67888D01*
X11829Y67941D01*
X11706Y67981D01*
X11601Y67999D01*
X11554Y68005D01*
X11514Y68011D01*
X11485Y68016D01*
X11438D01*
X11240Y68005D01*
X11059Y67981D01*
X10977Y67964D01*
X10896Y67946D01*
X10826Y67923D01*
X10762Y67906D01*
X10703Y67882D01*
X10651Y67859D01*
X10604Y67842D01*
X10569Y67824D01*
X10540Y67812D01*
X10517Y67801D01*
X10505Y67789D01*
X10499D01*
Y68494D01*
X10657Y68541D01*
X10814Y68576D01*
X10971Y68605D01*
X11117Y68623D01*
X11181Y68629D01*
X11246Y68634D01*
X11298D01*
X11345Y68640D01*
X11432D01*
X11584Y68634D01*
D02*
G37*
G36*
Y76508D02*
X11729Y76491D01*
X11863Y76468D01*
X11992Y76438D01*
X12114Y76398D01*
X12225Y76357D01*
X12324Y76310D01*
X12417Y76269D01*
X12499Y76223D01*
X12569Y76176D01*
X12627Y76135D01*
X12680Y76095D01*
X12720Y76065D01*
X12750Y76042D01*
X12767Y76025D01*
X12773Y76019D01*
X12860Y75925D01*
X12936Y75826D01*
X13006Y75721D01*
X13065Y75616D01*
X13111Y75506D01*
X13152Y75401D01*
X13187Y75296D01*
X13210Y75203D01*
X13234Y75109D01*
X13245Y75022D01*
X13257Y74946D01*
X13269Y74876D01*
Y74824D01*
X13274Y74783D01*
Y74759D01*
Y74748D01*
X13269Y74608D01*
X13257Y74474D01*
X13234Y74345D01*
X13204Y74229D01*
X13169Y74118D01*
X13129Y74019D01*
X13088Y73926D01*
X13041Y73844D01*
X13000Y73774D01*
X12959Y73710D01*
X12919Y73658D01*
X12884Y73611D01*
X12855Y73576D01*
X12831Y73553D01*
X12820Y73535D01*
X12814Y73529D01*
X12726Y73453D01*
X12627Y73384D01*
X12528Y73325D01*
X12423Y73279D01*
X12318Y73232D01*
X12213Y73197D01*
X12108Y73168D01*
X12009Y73145D01*
X11916Y73127D01*
X11829Y73115D01*
X11753Y73104D01*
X11689Y73098D01*
X11630D01*
X11590Y73092D01*
X11554D01*
X11420Y73098D01*
X11292Y73104D01*
X11176Y73115D01*
X11059Y73133D01*
X10954Y73156D01*
X10855Y73180D01*
X10762Y73203D01*
X10680Y73232D01*
X10604Y73255D01*
X10540Y73279D01*
X10482Y73302D01*
X10435Y73325D01*
X10394Y73343D01*
X10371Y73354D01*
X10353Y73366D01*
X10348D01*
Y75028D01*
X11759D01*
Y74433D01*
X11094D01*
Y73786D01*
X11158Y73763D01*
X11228Y73745D01*
X11298Y73728D01*
X11368Y73722D01*
X11426Y73716D01*
X11473Y73710D01*
X11519D01*
X11601Y73716D01*
X11677Y73722D01*
X11817Y73757D01*
X11939Y73798D01*
X12038Y73850D01*
X12120Y73902D01*
X12178Y73949D01*
X12196Y73966D01*
X12213Y73978D01*
X12219Y73984D01*
X12225Y73990D01*
X12272Y74042D01*
X12312Y74107D01*
X12376Y74235D01*
X12423Y74363D01*
X12452Y74491D01*
X12476Y74608D01*
X12482Y74655D01*
Y74701D01*
X12487Y74736D01*
Y74759D01*
Y74777D01*
Y74783D01*
X12482Y74876D01*
X12476Y74963D01*
X12441Y75121D01*
X12394Y75255D01*
X12371Y75319D01*
X12342Y75372D01*
X12312Y75424D01*
X12289Y75465D01*
X12266Y75500D01*
X12242Y75535D01*
X12225Y75558D01*
X12207Y75576D01*
X12202Y75582D01*
X12196Y75587D01*
X12138Y75640D01*
X12079Y75686D01*
X12015Y75727D01*
X11957Y75762D01*
X11829Y75815D01*
X11706Y75855D01*
X11601Y75873D01*
X11554Y75879D01*
X11514Y75885D01*
X11485Y75890D01*
X11438D01*
X11240Y75879D01*
X11059Y75855D01*
X10977Y75838D01*
X10896Y75820D01*
X10826Y75797D01*
X10762Y75780D01*
X10703Y75756D01*
X10651Y75733D01*
X10604Y75716D01*
X10569Y75698D01*
X10540Y75686D01*
X10517Y75675D01*
X10505Y75663D01*
X10499D01*
Y76368D01*
X10657Y76415D01*
X10814Y76450D01*
X10971Y76479D01*
X11117Y76497D01*
X11181Y76503D01*
X11246Y76508D01*
X11298D01*
X11345Y76514D01*
X11432D01*
X11584Y76508D01*
D02*
G37*
G36*
X34080Y60521D02*
X34127Y60434D01*
X34174Y60352D01*
X34215Y60282D01*
X34244Y60230D01*
X34267Y60195D01*
X34273Y60189D01*
Y60183D01*
X34337Y60084D01*
X34395Y59985D01*
X34459Y59892D01*
X34512Y59810D01*
X34559Y59740D01*
X34593Y59688D01*
X34617Y59653D01*
X34628Y59647D01*
Y59641D01*
X34699Y59542D01*
X34774Y59449D01*
X34838Y59355D01*
X34897Y59280D01*
X34949Y59210D01*
X34990Y59163D01*
X35013Y59128D01*
X35025Y59122D01*
Y59116D01*
X35101Y59023D01*
X35171Y58936D01*
X35241Y58854D01*
X35299Y58784D01*
X35351Y58726D01*
X35386Y58685D01*
X35410Y58656D01*
X35421Y58644D01*
Y58073D01*
X33976D01*
Y57397D01*
X33311D01*
Y58073D01*
X32915D01*
Y58621D01*
X33311D01*
Y60708D01*
X33987D01*
X34080Y60521D01*
D02*
G37*
G36*
X36838Y60755D02*
X36926Y60749D01*
X37001Y60737D01*
X37066Y60725D01*
X37112Y60720D01*
X37141Y60708D01*
X37153D01*
X37240Y60685D01*
X37316Y60655D01*
X37386Y60626D01*
X37444Y60597D01*
X37497Y60568D01*
X37532Y60545D01*
X37561Y60533D01*
X37567Y60527D01*
X37631Y60481D01*
X37683Y60428D01*
X37730Y60381D01*
X37771Y60335D01*
X37806Y60288D01*
X37829Y60253D01*
X37841Y60230D01*
X37847Y60224D01*
X37882Y60154D01*
X37905Y60078D01*
X37928Y60002D01*
X37940Y59933D01*
X37946Y59874D01*
X37952Y59822D01*
Y59793D01*
Y59787D01*
Y59781D01*
X37946Y59658D01*
X37922Y59554D01*
X37893Y59455D01*
X37858Y59373D01*
X37823Y59309D01*
X37794Y59256D01*
X37771Y59227D01*
X37765Y59215D01*
X37683Y59134D01*
X37590Y59058D01*
X37497Y58988D01*
X37404Y58930D01*
X37316Y58883D01*
X37246Y58848D01*
X37217Y58837D01*
X37200Y58825D01*
X37188Y58819D01*
X37182D01*
X37071Y58772D01*
X37025Y58755D01*
X36984Y58732D01*
X36949Y58720D01*
X36926Y58708D01*
X36908Y58697D01*
X36902D01*
X36809Y58656D01*
X36774Y58632D01*
X36739Y58615D01*
X36710Y58597D01*
X36692Y58586D01*
X36681Y58580D01*
X36675Y58574D01*
X36611Y58522D01*
X36564Y58475D01*
X36535Y58440D01*
X36523Y58434D01*
Y58428D01*
X36488Y58370D01*
X36471Y58318D01*
X36465Y58294D01*
Y58277D01*
Y58265D01*
Y58259D01*
X36471Y58207D01*
X36483Y58166D01*
X36494Y58137D01*
X36500Y58131D01*
Y58125D01*
X36529Y58079D01*
X36564Y58044D01*
X36593Y58020D01*
X36599Y58015D01*
X36605D01*
X36663Y57985D01*
X36716Y57962D01*
X36745Y57956D01*
X36762Y57950D01*
X36774Y57945D01*
X36780D01*
X36861Y57933D01*
X36943Y57927D01*
X36972Y57921D01*
X37025D01*
X37112Y57927D01*
X37200Y57933D01*
X37281Y57945D01*
X37351Y57962D01*
X37415Y57980D01*
X37462Y57991D01*
X37491Y57997D01*
X37503Y58003D01*
X37590Y58038D01*
X37672Y58079D01*
X37742Y58125D01*
X37806Y58166D01*
X37864Y58201D01*
X37905Y58230D01*
X37928Y58254D01*
X37940Y58259D01*
Y57519D01*
X37870Y57484D01*
X37794Y57461D01*
X37724Y57437D01*
X37660Y57420D01*
X37602Y57402D01*
X37555Y57391D01*
X37526Y57385D01*
X37514D01*
X37328Y57362D01*
X37240Y57356D01*
X37159Y57350D01*
X37089Y57344D01*
X36891D01*
X36803Y57350D01*
X36716Y57362D01*
X36640Y57367D01*
X36576Y57379D01*
X36529Y57385D01*
X36500Y57391D01*
X36488D01*
X36401Y57414D01*
X36319Y57437D01*
X36249Y57461D01*
X36191Y57490D01*
X36138Y57513D01*
X36098Y57536D01*
X36074Y57548D01*
X36068Y57554D01*
X36004Y57600D01*
X35946Y57653D01*
X35899Y57700D01*
X35859Y57752D01*
X35824Y57793D01*
X35800Y57828D01*
X35789Y57851D01*
X35783Y57857D01*
X35748Y57933D01*
X35725Y58009D01*
X35701Y58090D01*
X35690Y58160D01*
X35684Y58224D01*
X35678Y58277D01*
Y58312D01*
Y58318D01*
Y58324D01*
Y58399D01*
X35690Y58463D01*
X35695Y58527D01*
X35707Y58580D01*
X35719Y58621D01*
X35725Y58650D01*
X35736Y58673D01*
Y58679D01*
X35789Y58784D01*
X35818Y58831D01*
X35847Y58872D01*
X35870Y58901D01*
X35894Y58930D01*
X35905Y58941D01*
X35911Y58947D01*
X35999Y59029D01*
X36092Y59099D01*
X36127Y59122D01*
X36156Y59140D01*
X36179Y59151D01*
X36185Y59157D01*
X36308Y59227D01*
X36366Y59256D01*
X36424Y59285D01*
X36471Y59303D01*
X36506Y59320D01*
X36529Y59332D01*
X36541Y59338D01*
X36646Y59379D01*
X36687Y59396D01*
X36727Y59414D01*
X36757Y59431D01*
X36780Y59437D01*
X36797Y59449D01*
X36803D01*
X36879Y59490D01*
X36943Y59530D01*
X36966Y59542D01*
X36978Y59554D01*
X36990Y59565D01*
X36996D01*
X37048Y59612D01*
X37089Y59653D01*
X37112Y59682D01*
X37124Y59693D01*
X37147Y59746D01*
X37159Y59793D01*
X37165Y59828D01*
Y59833D01*
Y59839D01*
X37159Y59892D01*
X37147Y59933D01*
X37135Y59962D01*
X37130Y59973D01*
X37095Y60020D01*
X37060Y60055D01*
X37031Y60078D01*
X37019Y60084D01*
X36961Y60113D01*
X36902Y60137D01*
X36873Y60142D01*
X36856Y60148D01*
X36844Y60154D01*
X36838D01*
X36757Y60166D01*
X36687Y60177D01*
X36541D01*
X36477Y60172D01*
X36453Y60166D01*
X36436D01*
X36424Y60160D01*
X36418D01*
X36342Y60148D01*
X36273Y60137D01*
X36249Y60131D01*
X36226Y60125D01*
X36214Y60119D01*
X36209D01*
X36133Y60096D01*
X36068Y60072D01*
X36039Y60061D01*
X36022Y60049D01*
X36010Y60043D01*
X36004D01*
X35934Y60008D01*
X35876Y59979D01*
X35853Y59967D01*
X35835Y59956D01*
X35829Y59944D01*
X35824D01*
Y60638D01*
X35952Y60679D01*
X36016Y60696D01*
X36068Y60708D01*
X36121Y60720D01*
X36156Y60725D01*
X36179Y60731D01*
X36191D01*
X36267Y60743D01*
X36348Y60755D01*
X36424Y60760D01*
X36494D01*
X36558Y60766D01*
X36751D01*
X36838Y60755D01*
D02*
G37*
G36*
X33847Y84286D02*
X33923Y84240D01*
X33999Y84193D01*
X34057Y84158D01*
X34110Y84135D01*
X34139Y84117D01*
X34145Y84111D01*
X34150D01*
X34337Y84024D01*
X34430Y83989D01*
X34512Y83960D01*
X34582Y83937D01*
X34634Y83919D01*
X34669Y83907D01*
X34675Y83902D01*
X34681D01*
Y83284D01*
X34611Y83295D01*
X34547Y83307D01*
X34524Y83313D01*
X34506D01*
X34494Y83319D01*
X34489D01*
X34419Y83342D01*
X34354Y83359D01*
X34331Y83371D01*
X34314Y83377D01*
X34302Y83383D01*
X34296D01*
X34232Y83412D01*
X34174Y83441D01*
X34150Y83453D01*
X34133Y83464D01*
X34127Y83470D01*
X34121D01*
X34063Y83505D01*
X34022Y83540D01*
X33993Y83563D01*
X33981Y83575D01*
Y81010D01*
X33253D01*
Y84397D01*
X33690D01*
X33847Y84286D01*
D02*
G37*
G36*
X36500Y84368D02*
X36587Y84362D01*
X36663Y84350D01*
X36727Y84339D01*
X36774Y84333D01*
X36803Y84321D01*
X36815D01*
X36902Y84298D01*
X36978Y84269D01*
X37048Y84240D01*
X37106Y84210D01*
X37159Y84181D01*
X37194Y84158D01*
X37223Y84146D01*
X37229Y84140D01*
X37293Y84094D01*
X37345Y84041D01*
X37392Y83995D01*
X37433Y83948D01*
X37468Y83902D01*
X37491Y83867D01*
X37503Y83843D01*
X37509Y83837D01*
X37543Y83767D01*
X37567Y83692D01*
X37590Y83616D01*
X37602Y83546D01*
X37608Y83487D01*
X37613Y83435D01*
Y83406D01*
Y83400D01*
Y83394D01*
X37608Y83272D01*
X37584Y83167D01*
X37555Y83068D01*
X37520Y82986D01*
X37485Y82922D01*
X37456Y82870D01*
X37433Y82840D01*
X37427Y82829D01*
X37345Y82747D01*
X37252Y82671D01*
X37159Y82601D01*
X37066Y82543D01*
X36978Y82496D01*
X36908Y82462D01*
X36879Y82450D01*
X36861Y82438D01*
X36850Y82432D01*
X36844D01*
X36733Y82386D01*
X36687Y82368D01*
X36646Y82345D01*
X36611Y82333D01*
X36587Y82322D01*
X36570Y82310D01*
X36564D01*
X36471Y82269D01*
X36436Y82246D01*
X36401Y82228D01*
X36372Y82211D01*
X36354Y82199D01*
X36342Y82193D01*
X36337Y82187D01*
X36273Y82135D01*
X36226Y82088D01*
X36197Y82053D01*
X36185Y82047D01*
Y82042D01*
X36150Y81983D01*
X36133Y81931D01*
X36127Y81908D01*
Y81890D01*
Y81879D01*
Y81873D01*
X36133Y81820D01*
X36144Y81779D01*
X36156Y81750D01*
X36162Y81744D01*
Y81739D01*
X36191Y81692D01*
X36226Y81657D01*
X36255Y81634D01*
X36261Y81628D01*
X36267D01*
X36325Y81599D01*
X36378Y81575D01*
X36407Y81569D01*
X36424Y81564D01*
X36436Y81558D01*
X36442D01*
X36523Y81546D01*
X36605Y81540D01*
X36634Y81534D01*
X36687D01*
X36774Y81540D01*
X36861Y81546D01*
X36943Y81558D01*
X37013Y81575D01*
X37077Y81593D01*
X37124Y81604D01*
X37153Y81610D01*
X37165Y81616D01*
X37252Y81651D01*
X37334Y81692D01*
X37404Y81739D01*
X37468Y81779D01*
X37526Y81814D01*
X37567Y81844D01*
X37590Y81867D01*
X37602Y81873D01*
Y81132D01*
X37532Y81097D01*
X37456Y81074D01*
X37386Y81051D01*
X37322Y81033D01*
X37264Y81016D01*
X37217Y81004D01*
X37188Y80998D01*
X37176D01*
X36990Y80975D01*
X36902Y80969D01*
X36821Y80963D01*
X36751Y80957D01*
X36552D01*
X36465Y80963D01*
X36378Y80975D01*
X36302Y80981D01*
X36238Y80992D01*
X36191Y80998D01*
X36162Y81004D01*
X36150D01*
X36063Y81027D01*
X35981Y81051D01*
X35911Y81074D01*
X35853Y81103D01*
X35800Y81126D01*
X35760Y81150D01*
X35736Y81161D01*
X35730Y81167D01*
X35666Y81214D01*
X35608Y81266D01*
X35561Y81313D01*
X35520Y81365D01*
X35486Y81406D01*
X35462Y81441D01*
X35451Y81464D01*
X35445Y81470D01*
X35410Y81546D01*
X35386Y81622D01*
X35363Y81704D01*
X35351Y81774D01*
X35346Y81838D01*
X35340Y81890D01*
Y81925D01*
Y81931D01*
Y81937D01*
Y82012D01*
X35351Y82077D01*
X35357Y82141D01*
X35369Y82193D01*
X35381Y82234D01*
X35386Y82263D01*
X35398Y82287D01*
Y82292D01*
X35451Y82397D01*
X35480Y82444D01*
X35509Y82485D01*
X35532Y82514D01*
X35555Y82543D01*
X35567Y82555D01*
X35573Y82561D01*
X35660Y82642D01*
X35754Y82712D01*
X35789Y82736D01*
X35818Y82753D01*
X35841Y82765D01*
X35847Y82771D01*
X35969Y82840D01*
X36028Y82870D01*
X36086Y82899D01*
X36133Y82916D01*
X36168Y82934D01*
X36191Y82945D01*
X36203Y82951D01*
X36308Y82992D01*
X36348Y83009D01*
X36389Y83027D01*
X36418Y83044D01*
X36442Y83050D01*
X36459Y83062D01*
X36465D01*
X36541Y83103D01*
X36605Y83144D01*
X36628Y83155D01*
X36640Y83167D01*
X36652Y83179D01*
X36657D01*
X36710Y83225D01*
X36751Y83266D01*
X36774Y83295D01*
X36786Y83307D01*
X36809Y83359D01*
X36821Y83406D01*
X36826Y83441D01*
Y83447D01*
Y83453D01*
X36821Y83505D01*
X36809Y83546D01*
X36797Y83575D01*
X36792Y83587D01*
X36757Y83633D01*
X36722Y83668D01*
X36692Y83692D01*
X36681Y83697D01*
X36622Y83727D01*
X36564Y83750D01*
X36535Y83756D01*
X36518Y83762D01*
X36506Y83767D01*
X36500D01*
X36418Y83779D01*
X36348Y83791D01*
X36203D01*
X36138Y83785D01*
X36115Y83779D01*
X36098D01*
X36086Y83773D01*
X36080D01*
X36004Y83762D01*
X35934Y83750D01*
X35911Y83744D01*
X35888Y83738D01*
X35876Y83732D01*
X35870D01*
X35794Y83709D01*
X35730Y83686D01*
X35701Y83674D01*
X35684Y83662D01*
X35672Y83657D01*
X35666D01*
X35596Y83622D01*
X35538Y83592D01*
X35515Y83581D01*
X35497Y83569D01*
X35491Y83557D01*
X35486D01*
Y84251D01*
X35614Y84292D01*
X35678Y84310D01*
X35730Y84321D01*
X35783Y84333D01*
X35818Y84339D01*
X35841Y84345D01*
X35853D01*
X35929Y84356D01*
X36010Y84368D01*
X36086Y84374D01*
X36156D01*
X36220Y84380D01*
X36413D01*
X36500Y84368D01*
D02*
G37*
G36*
X11584Y84382D02*
X11729Y84365D01*
X11863Y84342D01*
X11992Y84312D01*
X12114Y84272D01*
X12225Y84231D01*
X12324Y84184D01*
X12417Y84143D01*
X12499Y84097D01*
X12569Y84050D01*
X12627Y84009D01*
X12680Y83969D01*
X12720Y83939D01*
X12750Y83916D01*
X12767Y83899D01*
X12773Y83893D01*
X12860Y83799D01*
X12936Y83700D01*
X13006Y83595D01*
X13065Y83491D01*
X13111Y83380D01*
X13152Y83275D01*
X13187Y83170D01*
X13210Y83077D01*
X13234Y82983D01*
X13245Y82896D01*
X13257Y82820D01*
X13269Y82750D01*
Y82698D01*
X13274Y82657D01*
Y82634D01*
Y82622D01*
X13269Y82482D01*
X13257Y82348D01*
X13234Y82219D01*
X13204Y82103D01*
X13169Y81992D01*
X13129Y81893D01*
X13088Y81800D01*
X13041Y81718D01*
X13000Y81648D01*
X12959Y81584D01*
X12919Y81532D01*
X12884Y81485D01*
X12855Y81450D01*
X12831Y81427D01*
X12820Y81409D01*
X12814Y81403D01*
X12726Y81327D01*
X12627Y81258D01*
X12528Y81199D01*
X12423Y81153D01*
X12318Y81106D01*
X12213Y81071D01*
X12108Y81042D01*
X12009Y81019D01*
X11916Y81001D01*
X11829Y80989D01*
X11753Y80978D01*
X11689Y80972D01*
X11630D01*
X11590Y80966D01*
X11554D01*
X11420Y80972D01*
X11292Y80978D01*
X11176Y80989D01*
X11059Y81007D01*
X10954Y81030D01*
X10855Y81054D01*
X10762Y81077D01*
X10680Y81106D01*
X10604Y81129D01*
X10540Y81153D01*
X10482Y81176D01*
X10435Y81199D01*
X10394Y81217D01*
X10371Y81228D01*
X10353Y81240D01*
X10348D01*
Y82902D01*
X11759D01*
Y82307D01*
X11094D01*
Y81660D01*
X11158Y81637D01*
X11228Y81619D01*
X11298Y81602D01*
X11368Y81596D01*
X11426Y81590D01*
X11473Y81584D01*
X11519D01*
X11601Y81590D01*
X11677Y81596D01*
X11817Y81631D01*
X11939Y81672D01*
X12038Y81724D01*
X12120Y81776D01*
X12178Y81823D01*
X12196Y81841D01*
X12213Y81852D01*
X12219Y81858D01*
X12225Y81864D01*
X12272Y81916D01*
X12312Y81981D01*
X12376Y82109D01*
X12423Y82237D01*
X12452Y82365D01*
X12476Y82482D01*
X12482Y82529D01*
Y82575D01*
X12487Y82610D01*
Y82634D01*
Y82651D01*
Y82657D01*
X12482Y82750D01*
X12476Y82837D01*
X12441Y82995D01*
X12394Y83129D01*
X12371Y83193D01*
X12342Y83246D01*
X12312Y83298D01*
X12289Y83339D01*
X12266Y83374D01*
X12242Y83409D01*
X12225Y83432D01*
X12207Y83450D01*
X12202Y83455D01*
X12196Y83461D01*
X12138Y83514D01*
X12079Y83560D01*
X12015Y83601D01*
X11957Y83636D01*
X11829Y83689D01*
X11706Y83729D01*
X11601Y83747D01*
X11554Y83753D01*
X11514Y83759D01*
X11485Y83764D01*
X11438D01*
X11240Y83753D01*
X11059Y83729D01*
X10977Y83712D01*
X10896Y83694D01*
X10826Y83671D01*
X10762Y83654D01*
X10703Y83630D01*
X10651Y83607D01*
X10604Y83590D01*
X10569Y83572D01*
X10540Y83560D01*
X10517Y83549D01*
X10505Y83537D01*
X10499D01*
Y84242D01*
X10657Y84289D01*
X10814Y84324D01*
X10971Y84353D01*
X11117Y84371D01*
X11181Y84377D01*
X11246Y84382D01*
X11298D01*
X11345Y84388D01*
X11432D01*
X11584Y84382D01*
D02*
G37*
G36*
X123311Y29426D02*
X121722D01*
X121591Y29433D01*
X121474Y29440D01*
X121358Y29455D01*
X121248Y29477D01*
X121154Y29499D01*
X121059Y29528D01*
X120971Y29557D01*
X120898Y29593D01*
X120833Y29623D01*
X120774Y29652D01*
X120723Y29681D01*
X120680Y29703D01*
X120651Y29725D01*
X120629Y29739D01*
X120614Y29754D01*
X120607D01*
X120534Y29819D01*
X120468Y29892D01*
X120417Y29965D01*
X120374Y30038D01*
X120301Y30184D01*
X120250Y30330D01*
X120220Y30461D01*
X120213Y30519D01*
X120206Y30563D01*
X120199Y30607D01*
Y30636D01*
Y30650D01*
Y30658D01*
X120213Y30796D01*
X120242Y30927D01*
X120286Y31044D01*
X120330Y31139D01*
X120381Y31212D01*
X120425Y31270D01*
X120454Y31306D01*
X120468Y31321D01*
X120570Y31416D01*
X120687Y31489D01*
X120804Y31547D01*
X120920Y31583D01*
X121022Y31620D01*
X121103Y31635D01*
X121132Y31642D01*
X121154Y31649D01*
X121176D01*
Y31656D01*
X121044Y31700D01*
X120935Y31751D01*
X120833Y31809D01*
X120753Y31868D01*
X120680Y31926D01*
X120636Y31970D01*
X120600Y31999D01*
X120592Y32006D01*
X120519Y32108D01*
X120461Y32203D01*
X120425Y32305D01*
X120395Y32400D01*
X120381Y32480D01*
X120366Y32539D01*
Y32582D01*
Y32597D01*
X120374Y32684D01*
X120381Y32757D01*
X120425Y32903D01*
X120483Y33027D01*
X120548Y33129D01*
X120621Y33209D01*
X120680Y33268D01*
X120723Y33297D01*
X120731Y33311D01*
X120738D01*
X120811Y33355D01*
X120891Y33399D01*
X121059Y33457D01*
X121241Y33501D01*
X121416Y33537D01*
X121496Y33544D01*
X121569Y33552D01*
X121635Y33559D01*
X121693D01*
X121744Y33566D01*
X123311D01*
Y29426D01*
D02*
G37*
G36*
X119965D02*
X118952D01*
X118660Y30344D01*
X117188D01*
X116889Y29426D01*
X115876D01*
X117348Y33566D01*
X118456D01*
X119965Y29426D01*
D02*
G37*
G36*
X115737Y32808D02*
X114563D01*
Y29426D01*
X113623D01*
Y32808D01*
X112442D01*
Y33566D01*
X115737D01*
Y32808D01*
D02*
G37*
G36*
X112267D02*
X111093D01*
Y29426D01*
X110153D01*
Y32808D01*
X108972D01*
Y33566D01*
X112267D01*
Y32808D01*
D02*
G37*
G36*
X26341Y31115D02*
X25121Y29721D01*
X25042Y29816D01*
X24972Y29903D01*
X24906Y29977D01*
X24849Y30043D01*
X24803Y30096D01*
X24733Y30167D01*
X24642Y30249D01*
X24556Y30311D01*
X24473Y30360D01*
X24395Y30397D01*
X24321Y30414D01*
X24251Y30426D01*
X24185D01*
X24131Y30422D01*
X24078Y30410D01*
X24028Y30393D01*
X23991Y30373D01*
X23954Y30352D01*
X23929Y30336D01*
X23909Y30323D01*
X23896Y30311D01*
X23892Y30307D01*
X23839Y30245D01*
X23797Y30179D01*
X23773Y30113D01*
X23756Y30055D01*
X23748Y30006D01*
X23744Y29960D01*
Y29936D01*
Y29927D01*
X23756Y29849D01*
X23789Y29775D01*
X23826Y29705D01*
X23863Y29643D01*
X23900Y29589D01*
X23933Y29548D01*
X23966Y29515D01*
X24074Y29425D01*
X24185Y29346D01*
X24292Y29280D01*
X24399Y29231D01*
X24486Y29194D01*
X24527Y29177D01*
X24560Y29169D01*
X24585Y29161D01*
X24605Y29157D01*
X24618Y29152D01*
X24622Y29148D01*
X24181Y28707D01*
X24057Y28765D01*
X23942Y28839D01*
X23830Y28917D01*
X23727Y28996D01*
X23641Y29066D01*
X23608Y29099D01*
X23575Y29123D01*
X23517Y29181D01*
X23447Y29260D01*
X23377Y29338D01*
X23323Y29416D01*
X23270Y29495D01*
X23233Y29573D01*
X23196Y29643D01*
X23167Y29713D01*
X23142Y29779D01*
X23121Y29841D01*
X23109Y29894D01*
X23101Y29944D01*
X23092Y29985D01*
X23084Y30018D01*
Y30043D01*
X23080Y30055D01*
Y30063D01*
X23084Y30150D01*
X23088Y30237D01*
X23105Y30311D01*
X23125Y30389D01*
X23146Y30459D01*
X23175Y30529D01*
X23237Y30649D01*
X23303Y30748D01*
X23332Y30785D01*
X23360Y30822D01*
X23381Y30851D01*
X23397Y30867D01*
X23410Y30880D01*
X23414Y30884D01*
X23476Y30937D01*
X23534Y30987D01*
X23661Y31065D01*
X23781Y31119D01*
X23888Y31152D01*
X23983Y31172D01*
X24061Y31185D01*
X24086D01*
X24111D01*
X24119D01*
X24127D01*
X24201Y31176D01*
X24271Y31164D01*
X24412Y31123D01*
X24539Y31061D01*
X24651Y30991D01*
X24750Y30925D01*
X24787Y30896D01*
X24816Y30867D01*
X24849Y30843D01*
X24952Y30740D01*
X24985Y30698D01*
X25046Y30637D01*
X25067Y30608D01*
X25088Y30587D01*
X25529Y31086D01*
X24680Y31935D01*
X25100Y32355D01*
X26341Y31115D01*
D02*
G37*
G36*
X27829Y29280D02*
X27862D01*
X27887D01*
X27895D01*
X27961Y29272D01*
X28031Y29260D01*
X28089Y29243D01*
X28151Y29223D01*
X28196Y29202D01*
X28233Y29190D01*
X28258Y29181D01*
X28266Y29173D01*
X28336Y29136D01*
X28402Y29095D01*
X28464Y29049D01*
X28522Y29008D01*
X28567Y28963D01*
X28604Y28934D01*
X28633Y28905D01*
X28699Y28831D01*
X28765Y28757D01*
X28872Y28608D01*
X28959Y28456D01*
X28996Y28386D01*
X29021Y28320D01*
X29049Y28258D01*
X29070Y28196D01*
X29086Y28146D01*
X29103Y28105D01*
X29111Y28064D01*
X29119Y28039D01*
X29123Y28027D01*
Y28019D01*
X28666Y27561D01*
X28654Y27656D01*
X28645Y27747D01*
X28621Y27829D01*
X28600Y27907D01*
X28575Y27982D01*
X28546Y28052D01*
X28489Y28167D01*
X28456Y28217D01*
X28431Y28258D01*
X28402Y28295D01*
X28377Y28328D01*
X28361Y28353D01*
X28332Y28381D01*
X28266Y28439D01*
X28204Y28485D01*
X28146Y28517D01*
X28097Y28542D01*
X28056Y28550D01*
X28023Y28559D01*
X28002Y28563D01*
X27994D01*
X27932Y28559D01*
X27874Y28542D01*
X27821Y28522D01*
X27775Y28493D01*
X27734Y28468D01*
X27705Y28447D01*
X27689Y28431D01*
X27681Y28423D01*
X27627Y28361D01*
X27590Y28307D01*
X27578Y28278D01*
X27569Y28262D01*
X27565Y28250D01*
X27561Y28245D01*
X27532Y28175D01*
X27520Y28105D01*
X27516Y28076D01*
X27512Y28056D01*
X27507Y28043D01*
Y28035D01*
X27499Y27944D01*
X27503Y27858D01*
Y27825D01*
X27507Y27796D01*
Y27780D01*
Y27771D01*
X27516Y27664D01*
X27528Y27561D01*
X27536Y27520D01*
X27540Y27483D01*
X27545Y27462D01*
Y27454D01*
X27565Y27326D01*
X27573Y27260D01*
X27578Y27207D01*
X27586Y27157D01*
X27590Y27120D01*
X27594Y27091D01*
Y27083D01*
X27602Y26943D01*
Y26869D01*
Y26811D01*
X27598Y26757D01*
X27594Y26720D01*
X27590Y26691D01*
Y26683D01*
X27565Y26535D01*
X27549Y26469D01*
X27532Y26403D01*
X27516Y26353D01*
X27499Y26312D01*
X27491Y26287D01*
X27487Y26275D01*
X27454Y26201D01*
X27417Y26131D01*
X27367Y26065D01*
X27326Y26007D01*
X27289Y25962D01*
X27256Y25920D01*
X27235Y25900D01*
X27231Y25896D01*
X27227Y25892D01*
X27054Y25718D01*
X25492Y27281D01*
X25916Y27705D01*
X26910Y26712D01*
X26939Y26749D01*
X26959Y26794D01*
X26972Y26823D01*
Y26831D01*
X26976Y26836D01*
X26988Y26906D01*
X26992Y26967D01*
X26996Y27013D01*
Y27021D01*
Y27029D01*
X26992Y27116D01*
X26984Y27190D01*
X26976Y27223D01*
Y27248D01*
X26972Y27260D01*
Y27268D01*
X26959Y27363D01*
X26943Y27446D01*
X26939Y27483D01*
X26934Y27512D01*
X26930Y27524D01*
Y27532D01*
X26906Y27672D01*
X26897Y27738D01*
X26885Y27800D01*
X26881Y27846D01*
X26873Y27887D01*
Y27911D01*
Y27920D01*
X26864Y28060D01*
Y28126D01*
Y28184D01*
X26869Y28229D01*
Y28270D01*
X26873Y28291D01*
Y28299D01*
X26897Y28431D01*
X26910Y28493D01*
X26926Y28550D01*
X26943Y28592D01*
X26955Y28629D01*
X26967Y28650D01*
Y28658D01*
X27000Y28724D01*
X27038Y28785D01*
X27079Y28843D01*
X27116Y28897D01*
X27153Y28934D01*
X27178Y28967D01*
X27198Y28988D01*
X27207Y28996D01*
X27268Y29049D01*
X27322Y29095D01*
X27376Y29132D01*
X27425Y29165D01*
X27475Y29190D01*
X27507Y29206D01*
X27528Y29218D01*
X27536D01*
X27602Y29243D01*
X27668Y29260D01*
X27726Y29268D01*
X27780Y29280D01*
X27829D01*
D02*
G37*
G36*
X24989Y28600D02*
X25005D01*
X25014D01*
X25071Y28592D01*
X25125Y28571D01*
X25174Y28555D01*
X25216Y28530D01*
X25253Y28501D01*
X25281Y28480D01*
X25302Y28460D01*
X25343Y28410D01*
X25380Y28357D01*
X25405Y28307D01*
X25422Y28266D01*
X25438Y28225D01*
X25442Y28196D01*
X25446Y28175D01*
Y28167D01*
Y28109D01*
X25434Y28056D01*
X25418Y28006D01*
X25397Y27969D01*
X25376Y27932D01*
X25360Y27907D01*
X25343Y27891D01*
X25339Y27887D01*
X25294Y27850D01*
X25248Y27821D01*
X25207Y27804D01*
X25162Y27792D01*
X25121Y27784D01*
X25092Y27780D01*
X25075D01*
X25067D01*
X25009Y27788D01*
X24956Y27808D01*
X24902Y27829D01*
X24861Y27854D01*
X24828Y27879D01*
X24799Y27899D01*
X24779Y27920D01*
X24733Y27973D01*
X24700Y28023D01*
X24667Y28072D01*
X24655Y28118D01*
X24638Y28159D01*
X24630Y28184D01*
X24626Y28204D01*
Y28212D01*
Y28270D01*
X24638Y28324D01*
X24655Y28373D01*
X24675Y28410D01*
X24696Y28447D01*
X24712Y28472D01*
X24729Y28489D01*
X24733Y28493D01*
X24779Y28530D01*
X24828Y28563D01*
X24877Y28579D01*
X24915Y28592D01*
X24956Y28600D01*
X24989D01*
D02*
G37*
G36*
X30546Y26910D02*
X29643Y25042D01*
X29602Y24968D01*
X29561Y24894D01*
X29523Y24824D01*
X29482Y24758D01*
X29449Y24700D01*
X29420Y24655D01*
X29400Y24626D01*
Y24618D01*
X29396Y24614D01*
X29408Y24601D01*
X29482Y24651D01*
X29556Y24700D01*
X29627Y24746D01*
X29688Y24783D01*
X29742Y24812D01*
X29787Y24832D01*
X29812Y24849D01*
X29824Y24853D01*
X31692Y25764D01*
X32463Y24993D01*
X30121Y22651D01*
X29647Y23125D01*
X30942Y24420D01*
X31040Y24519D01*
X31152Y24622D01*
X31255Y24717D01*
X31350Y24812D01*
X31399Y24853D01*
X31436Y24890D01*
X31477Y24923D01*
X31506Y24952D01*
X31535Y24972D01*
X31552Y24989D01*
X31564Y25001D01*
X31568Y25005D01*
X31556Y25018D01*
X31502Y24981D01*
X31449Y24952D01*
X31399Y24919D01*
X31362Y24890D01*
X31292Y24844D01*
X31238Y24816D01*
X31197Y24791D01*
X31176Y24779D01*
X31160Y24770D01*
X31156Y24766D01*
X29021Y23752D01*
X28592Y24181D01*
X29631Y26324D01*
X29659Y26378D01*
X29692Y26436D01*
X29734Y26502D01*
X29771Y26564D01*
X29808Y26617D01*
X29841Y26667D01*
X29862Y26695D01*
X29866Y26700D01*
X29870Y26704D01*
X29853Y26720D01*
X29763Y26613D01*
X29672Y26514D01*
X29594Y26428D01*
X29519Y26353D01*
X29462Y26287D01*
X29437Y26263D01*
X29416Y26242D01*
X29400Y26226D01*
X29387Y26213D01*
X29379Y26205D01*
X29375Y26201D01*
X27973Y24799D01*
X27454Y25319D01*
X29796Y27660D01*
X30546Y26910D01*
D02*
G37*
%LPC*%
G36*
X68939Y16685D02*
X68484D01*
X68402Y16673D01*
X68245Y16644D01*
X68117Y16597D01*
X68006Y16551D01*
X67959Y16521D01*
X67919Y16498D01*
X67884Y16475D01*
X67860Y16451D01*
X67837Y16434D01*
X67819Y16422D01*
X67814Y16416D01*
X67808Y16411D01*
X67761Y16358D01*
X67715Y16300D01*
X67650Y16183D01*
X67598Y16055D01*
X67569Y15938D01*
X67545Y15828D01*
X67540Y15781D01*
Y15746D01*
X67534Y15711D01*
Y15688D01*
Y15670D01*
Y15664D01*
X67540Y15571D01*
X67545Y15484D01*
X67575Y15332D01*
X67621Y15192D01*
X67645Y15134D01*
X67674Y15081D01*
X67697Y15035D01*
X67726Y14988D01*
X67750Y14953D01*
X67767Y14924D01*
X67790Y14901D01*
X67802Y14883D01*
X67808Y14877D01*
X67814Y14872D01*
X67866Y14819D01*
X67924Y14778D01*
X67983Y14737D01*
X68047Y14702D01*
X68175Y14650D01*
X68297Y14615D01*
X68402Y14597D01*
X68449Y14592D01*
X68490Y14586D01*
X68525Y14580D01*
X68939D01*
Y16685D01*
D02*
G37*
G36*
X49152D02*
X48697D01*
X48615Y16673D01*
X48458Y16644D01*
X48330Y16597D01*
X48219Y16551D01*
X48172Y16521D01*
X48131Y16498D01*
X48097Y16475D01*
X48073Y16451D01*
X48050Y16434D01*
X48032Y16422D01*
X48027Y16416D01*
X48021Y16411D01*
X47974Y16358D01*
X47927Y16300D01*
X47863Y16183D01*
X47811Y16055D01*
X47782Y15938D01*
X47758Y15828D01*
X47753Y15781D01*
Y15746D01*
X47747Y15711D01*
Y15688D01*
Y15670D01*
Y15664D01*
X47753Y15571D01*
X47758Y15484D01*
X47788Y15332D01*
X47834Y15192D01*
X47857Y15134D01*
X47887Y15081D01*
X47910Y15035D01*
X47939Y14988D01*
X47962Y14953D01*
X47980Y14924D01*
X48003Y14901D01*
X48015Y14883D01*
X48021Y14877D01*
X48027Y14872D01*
X48079Y14819D01*
X48137Y14778D01*
X48196Y14737D01*
X48260Y14702D01*
X48388Y14650D01*
X48511Y14615D01*
X48615Y14597D01*
X48662Y14592D01*
X48703Y14586D01*
X48738Y14580D01*
X49152D01*
Y16685D01*
D02*
G37*
G36*
X44354Y16743D02*
X44074D01*
X43981Y16737D01*
X43893Y16725D01*
X43823Y16708D01*
X43759Y16685D01*
X43707Y16656D01*
X43666Y16626D01*
X43631Y16591D01*
X43602Y16562D01*
X43578Y16527D01*
X43561Y16492D01*
X43538Y16434D01*
Y16411D01*
X43532Y16393D01*
Y16382D01*
Y16376D01*
X43538Y16306D01*
X43555Y16241D01*
X43573Y16189D01*
X43596Y16148D01*
X43625Y16113D01*
X43642Y16090D01*
X43660Y16072D01*
X43666Y16067D01*
X43718Y16032D01*
X43777Y16003D01*
X43835Y15985D01*
X43893Y15968D01*
X43946Y15962D01*
X43986Y15956D01*
X44354D01*
Y16743D01*
D02*
G37*
G36*
Y15402D02*
X43946D01*
X43852Y15396D01*
X43777Y15384D01*
X43707Y15367D01*
X43648Y15344D01*
X43602Y15320D01*
X43573Y15303D01*
X43549Y15291D01*
X43543Y15285D01*
X43497Y15239D01*
X43462Y15192D01*
X43433Y15140D01*
X43415Y15087D01*
X43403Y15046D01*
X43398Y15011D01*
Y14988D01*
Y14976D01*
X43403Y14901D01*
X43421Y14837D01*
X43444Y14778D01*
X43473Y14732D01*
X43503Y14697D01*
X43526Y14667D01*
X43543Y14650D01*
X43549Y14644D01*
X43608Y14603D01*
X43672Y14574D01*
X43742Y14557D01*
X43806Y14545D01*
X43864Y14533D01*
X43911Y14527D01*
X44354D01*
Y15402D01*
D02*
G37*
G36*
X68939Y12600D02*
X68484D01*
X68402Y12588D01*
X68245Y12559D01*
X68117Y12513D01*
X68006Y12466D01*
X67959Y12437D01*
X67919Y12414D01*
X67884Y12390D01*
X67860Y12367D01*
X67837Y12349D01*
X67819Y12338D01*
X67814Y12332D01*
X67808Y12326D01*
X67761Y12274D01*
X67715Y12215D01*
X67650Y12099D01*
X67598Y11970D01*
X67569Y11854D01*
X67545Y11743D01*
X67540Y11697D01*
Y11661D01*
X67534Y11626D01*
Y11603D01*
Y11586D01*
Y11580D01*
X67540Y11487D01*
X67545Y11399D01*
X67575Y11248D01*
X67621Y11108D01*
X67645Y11049D01*
X67674Y10997D01*
X67697Y10950D01*
X67726Y10904D01*
X67750Y10869D01*
X67767Y10839D01*
X67790Y10816D01*
X67802Y10799D01*
X67808Y10793D01*
X67814Y10787D01*
X67866Y10734D01*
X67924Y10694D01*
X67983Y10653D01*
X68047Y10618D01*
X68175Y10565D01*
X68297Y10531D01*
X68402Y10513D01*
X68449Y10507D01*
X68490Y10501D01*
X68525Y10496D01*
X68939D01*
Y12600D01*
D02*
G37*
G36*
X52352Y12658D02*
X52073D01*
X51979Y12653D01*
X51892Y12641D01*
X51822Y12623D01*
X51758Y12600D01*
X51705Y12571D01*
X51665Y12542D01*
X51630Y12507D01*
X51600Y12478D01*
X51577Y12443D01*
X51560Y12408D01*
X51536Y12349D01*
Y12326D01*
X51530Y12309D01*
Y12297D01*
Y12291D01*
X51536Y12221D01*
X51554Y12157D01*
X51571Y12105D01*
X51595Y12064D01*
X51624Y12029D01*
X51641Y12005D01*
X51659Y11988D01*
X51665Y11982D01*
X51717Y11947D01*
X51775Y11918D01*
X51834Y11901D01*
X51892Y11883D01*
X51944Y11877D01*
X51985Y11871D01*
X52352D01*
Y12658D01*
D02*
G37*
G36*
Y11317D02*
X51944D01*
X51851Y11312D01*
X51775Y11300D01*
X51705Y11282D01*
X51647Y11259D01*
X51600Y11236D01*
X51571Y11218D01*
X51548Y11207D01*
X51542Y11201D01*
X51495Y11154D01*
X51460Y11108D01*
X51431Y11055D01*
X51414Y11003D01*
X51402Y10962D01*
X51396Y10927D01*
Y10904D01*
Y10892D01*
X51402Y10816D01*
X51420Y10752D01*
X51443Y10694D01*
X51472Y10647D01*
X51501Y10612D01*
X51525Y10583D01*
X51542Y10565D01*
X51548Y10560D01*
X51606Y10519D01*
X51670Y10490D01*
X51740Y10472D01*
X51804Y10460D01*
X51863Y10449D01*
X51909Y10443D01*
X52352D01*
Y11317D01*
D02*
G37*
G36*
X41981Y12600D02*
X41526D01*
X41445Y12588D01*
X41287Y12559D01*
X41159Y12513D01*
X41048Y12466D01*
X41001Y12437D01*
X40961Y12414D01*
X40926Y12390D01*
X40902Y12367D01*
X40879Y12349D01*
X40861Y12338D01*
X40856Y12332D01*
X40850Y12326D01*
X40803Y12274D01*
X40757Y12215D01*
X40692Y12099D01*
X40640Y11970D01*
X40611Y11854D01*
X40587Y11743D01*
X40582Y11697D01*
Y11661D01*
X40576Y11626D01*
Y11603D01*
Y11586D01*
Y11580D01*
X40582Y11487D01*
X40587Y11399D01*
X40617Y11248D01*
X40663Y11108D01*
X40687Y11049D01*
X40716Y10997D01*
X40739Y10950D01*
X40768Y10904D01*
X40792Y10869D01*
X40809Y10839D01*
X40832Y10816D01*
X40844Y10799D01*
X40850Y10793D01*
X40856Y10787D01*
X40908Y10734D01*
X40966Y10694D01*
X41025Y10653D01*
X41089Y10618D01*
X41217Y10565D01*
X41340Y10531D01*
X41445Y10513D01*
X41491Y10507D01*
X41532Y10501D01*
X41567Y10496D01*
X41981D01*
Y12600D01*
D02*
G37*
G36*
X37976Y12618D02*
X37952D01*
X37947Y12553D01*
X37941Y12495D01*
X37929Y12443D01*
X37923Y12402D01*
X37911Y12367D01*
X37906Y12338D01*
X37900Y12320D01*
Y12314D01*
X37544Y11201D01*
X38390D01*
X38034Y12326D01*
X38005Y12431D01*
X37993Y12483D01*
X37987Y12524D01*
X37982Y12565D01*
X37976Y12594D01*
Y12612D01*
Y12618D01*
D02*
G37*
G36*
X35160Y12647D02*
X34828D01*
X34734Y12641D01*
X34653Y12629D01*
X34583Y12606D01*
X34524Y12577D01*
X34472Y12548D01*
X34431Y12513D01*
X34396Y12472D01*
X34367Y12431D01*
X34349Y12390D01*
X34332Y12349D01*
X34309Y12285D01*
Y12256D01*
X34303Y12233D01*
Y12221D01*
Y12215D01*
X34309Y12139D01*
X34326Y12070D01*
X34349Y12011D01*
X34379Y11965D01*
X34408Y11924D01*
X34431Y11889D01*
X34449Y11871D01*
X34454Y11866D01*
X34513Y11819D01*
X34577Y11784D01*
X34641Y11761D01*
X34699Y11743D01*
X34758Y11731D01*
X34798Y11726D01*
X35160D01*
Y12647D01*
D02*
G37*
G36*
X48668Y12618D02*
X48633D01*
X48563Y12612D01*
X48499Y12606D01*
X48376Y12571D01*
X48271Y12530D01*
X48190Y12478D01*
X48120Y12425D01*
X48073Y12379D01*
X48044Y12344D01*
X48032Y12338D01*
Y12332D01*
X47957Y12215D01*
X47904Y12087D01*
X47863Y11953D01*
X47840Y11825D01*
X47822Y11708D01*
X47817Y11661D01*
Y11621D01*
X47811Y11580D01*
Y11557D01*
Y11539D01*
Y11533D01*
X47822Y11358D01*
X47846Y11201D01*
X47881Y11073D01*
X47922Y10962D01*
X47945Y10915D01*
X47968Y10874D01*
X47986Y10839D01*
X48003Y10810D01*
X48015Y10787D01*
X48027Y10769D01*
X48038Y10764D01*
Y10758D01*
X48085Y10711D01*
X48131Y10665D01*
X48231Y10595D01*
X48330Y10548D01*
X48429Y10513D01*
X48516Y10496D01*
X48551Y10484D01*
X48586D01*
X48615Y10478D01*
X48650D01*
X48720Y10484D01*
X48785Y10490D01*
X48901Y10525D01*
X49006Y10571D01*
X49093Y10624D01*
X49163Y10676D01*
X49216Y10717D01*
X49245Y10752D01*
X49257Y10758D01*
Y10764D01*
X49332Y10880D01*
X49391Y11009D01*
X49426Y11137D01*
X49455Y11265D01*
X49472Y11376D01*
X49478Y11423D01*
Y11463D01*
X49484Y11498D01*
Y11522D01*
Y11539D01*
Y11545D01*
X49472Y11720D01*
X49449Y11871D01*
X49414Y12005D01*
X49367Y12116D01*
X49350Y12163D01*
X49327Y12204D01*
X49309Y12239D01*
X49292Y12268D01*
X49280Y12291D01*
X49268Y12309D01*
X49257Y12314D01*
Y12320D01*
X49210Y12373D01*
X49163Y12419D01*
X49111Y12460D01*
X49058Y12495D01*
X48959Y12548D01*
X48855Y12583D01*
X48767Y12600D01*
X48732Y12606D01*
X48697Y12612D01*
X48668Y12618D01*
D02*
G37*
G36*
X201064Y104485D02*
X200776D01*
X200677Y104478D01*
X200586Y104465D01*
X200500Y104445D01*
X200435Y104426D01*
X200376Y104399D01*
X200330Y104380D01*
X200304Y104367D01*
X200297Y104360D01*
X200225Y104314D01*
X200159Y104255D01*
X200100Y104202D01*
X200054Y104144D01*
X200022Y104097D01*
X199995Y104058D01*
X199982Y104032D01*
X199976Y104019D01*
X199936Y103934D01*
X199910Y103855D01*
X199890Y103770D01*
X199877Y103697D01*
X199871Y103632D01*
X199864Y103579D01*
Y103547D01*
Y103533D01*
X199877Y103363D01*
X199903Y103218D01*
X199943Y103087D01*
X199982Y102982D01*
X200028Y102897D01*
X200067Y102838D01*
X200094Y102799D01*
X200107Y102786D01*
X200205Y102694D01*
X200310Y102628D01*
X200415Y102576D01*
X200520Y102543D01*
X200612Y102523D01*
X200684Y102517D01*
X200710Y102510D01*
X201064D01*
Y104485D01*
D02*
G37*
G36*
X194334Y104550D02*
X194308D01*
X194288Y104399D01*
X194275Y104334D01*
X194262Y104268D01*
X194249Y104209D01*
X194236Y104170D01*
X194229Y104144D01*
Y104130D01*
X193967Y103120D01*
X194682D01*
X194629Y103310D01*
X194590Y103481D01*
X194551Y103632D01*
X194511Y103763D01*
X194485Y103881D01*
X194459Y103979D01*
X194439Y104065D01*
X194419Y104137D01*
X194406Y104189D01*
X194400Y104235D01*
X194386Y104275D01*
X194380Y104301D01*
Y104321D01*
X194373Y104334D01*
Y104340D01*
X194360Y104393D01*
X194354Y104432D01*
X194347Y104472D01*
X194341Y104498D01*
Y104524D01*
X194334Y104537D01*
Y104550D01*
D02*
G37*
G36*
X166362Y104583D02*
X166132D01*
X166047Y104576D01*
X165975Y104563D01*
X165910Y104550D01*
X165864Y104531D01*
X165824Y104504D01*
X165791Y104491D01*
X165778Y104478D01*
X165772Y104472D01*
X165732Y104426D01*
X165706Y104380D01*
X165680Y104327D01*
X165667Y104281D01*
X165660Y104242D01*
X165654Y104209D01*
Y104183D01*
Y104176D01*
X165660Y104104D01*
X165673Y104045D01*
X165700Y103986D01*
X165726Y103940D01*
X165752Y103907D01*
X165778Y103875D01*
X165791Y103861D01*
X165798Y103855D01*
X165850Y103815D01*
X165910Y103783D01*
X165975Y103763D01*
X166028Y103743D01*
X166080Y103737D01*
X166119Y103730D01*
X166362D01*
Y104583D01*
D02*
G37*
G36*
X184664Y104465D02*
X184651D01*
X184540Y104452D01*
X184448Y104426D01*
X184363Y104380D01*
X184291Y104334D01*
X184238Y104281D01*
X184199Y104235D01*
X184172Y104209D01*
X184166Y104196D01*
X184107Y104091D01*
X184061Y103973D01*
X184035Y103848D01*
X184009Y103737D01*
X183995Y103632D01*
Y103586D01*
X183989Y103547D01*
Y103514D01*
Y103487D01*
Y103474D01*
Y103468D01*
X183995Y103363D01*
X184002Y103264D01*
X184015Y103179D01*
X184035Y103100D01*
X184055Y103041D01*
X184068Y102996D01*
X184074Y102969D01*
X184081Y102956D01*
X184114Y102884D01*
X184153Y102818D01*
X184192Y102759D01*
X184232Y102720D01*
X184271Y102681D01*
X184297Y102654D01*
X184317Y102641D01*
X184323Y102635D01*
X184382Y102595D01*
X184441Y102569D01*
X184501Y102549D01*
X184553Y102536D01*
X184599Y102530D01*
X184638Y102523D01*
X184671D01*
X184783Y102536D01*
X184888Y102562D01*
X184973Y102602D01*
X185045Y102648D01*
X185104Y102694D01*
X185143Y102733D01*
X185170Y102759D01*
X185176Y102772D01*
X185235Y102877D01*
X185281Y102996D01*
X185314Y103113D01*
X185334Y103225D01*
X185347Y103330D01*
X185353Y103376D01*
X185360Y103409D01*
Y103442D01*
Y103468D01*
Y103481D01*
Y103487D01*
X185353Y103651D01*
X185334Y103796D01*
X185301Y103920D01*
X185268Y104025D01*
X185235Y104104D01*
X185203Y104163D01*
X185183Y104196D01*
X185176Y104209D01*
X185098Y104294D01*
X185012Y104360D01*
X184927Y104406D01*
X184842Y104432D01*
X184769Y104452D01*
X184704Y104458D01*
X184664Y104465D01*
D02*
G37*
G36*
X33976Y59775D02*
Y58621D01*
X34769D01*
X34693Y58714D01*
X34628Y58796D01*
X34605Y58831D01*
X34582Y58860D01*
X34570Y58877D01*
X34564Y58883D01*
X34483Y58988D01*
X34448Y59035D01*
X34419Y59081D01*
X34389Y59116D01*
X34372Y59145D01*
X34360Y59163D01*
X34354Y59169D01*
X34279Y59280D01*
X34244Y59332D01*
X34215Y59379D01*
X34191Y59414D01*
X34174Y59449D01*
X34162Y59466D01*
X34156Y59472D01*
X34086Y59589D01*
X34057Y59635D01*
X34028Y59682D01*
X34005Y59723D01*
X33987Y59752D01*
X33981Y59769D01*
X33976Y59775D01*
D02*
G37*
G36*
X122378Y32881D02*
X122028D01*
X121912Y32874D01*
X121802Y32859D01*
X121715Y32837D01*
X121635Y32808D01*
X121569Y32772D01*
X121518Y32735D01*
X121474Y32692D01*
X121438Y32655D01*
X121409Y32611D01*
X121387Y32568D01*
X121358Y32495D01*
Y32466D01*
X121350Y32444D01*
Y32429D01*
Y32422D01*
X121358Y32334D01*
X121380Y32254D01*
X121402Y32189D01*
X121431Y32138D01*
X121467Y32094D01*
X121489Y32065D01*
X121511Y32043D01*
X121518Y32035D01*
X121584Y31992D01*
X121657Y31955D01*
X121730Y31934D01*
X121802Y31912D01*
X121868Y31904D01*
X121919Y31897D01*
X122378D01*
Y32881D01*
D02*
G37*
G36*
Y31205D02*
X121868D01*
X121751Y31197D01*
X121657Y31183D01*
X121569Y31161D01*
X121496Y31132D01*
X121438Y31102D01*
X121402Y31080D01*
X121372Y31066D01*
X121365Y31059D01*
X121307Y31000D01*
X121263Y30942D01*
X121227Y30876D01*
X121205Y30811D01*
X121190Y30760D01*
X121183Y30716D01*
Y30687D01*
Y30672D01*
X121190Y30577D01*
X121212Y30497D01*
X121241Y30424D01*
X121277Y30366D01*
X121314Y30322D01*
X121343Y30286D01*
X121365Y30264D01*
X121372Y30257D01*
X121445Y30206D01*
X121525Y30169D01*
X121613Y30147D01*
X121693Y30133D01*
X121766Y30118D01*
X121824Y30111D01*
X122378D01*
Y31205D01*
D02*
G37*
G36*
X117939Y32830D02*
X117910D01*
X117902Y32750D01*
X117895Y32677D01*
X117880Y32611D01*
X117873Y32560D01*
X117859Y32517D01*
X117851Y32480D01*
X117844Y32458D01*
Y32451D01*
X117399Y31059D01*
X118456D01*
X118012Y32466D01*
X117975Y32597D01*
X117961Y32662D01*
X117953Y32713D01*
X117946Y32765D01*
X117939Y32801D01*
Y32823D01*
Y32830D01*
D02*
G37*
%LPD*%
D16*
X22638Y82677D02*
G03*
X22638Y82677I-3937J0D01*
G01*
Y74803D02*
G03*
X22638Y74803I-3937J0D01*
G01*
Y66929D02*
G03*
X22638Y66929I-3937J0D01*
G01*
Y59055D02*
G03*
X22638Y59055I-3937J0D01*
G01*
X31496Y82677D02*
G03*
X31496Y82677I-3937J0D01*
G01*
Y74803D02*
G03*
X31496Y74803I-3937J0D01*
G01*
Y66929D02*
G03*
X31496Y66929I-3937J0D01*
G01*
Y59055D02*
G03*
X31496Y59055I-3937J0D01*
G01*
D136*
X100197Y30315D02*
X106102D01*
X127165D02*
X133071D01*
X130118Y27362D02*
Y33268D01*
M02*
